<svg width="661" height="130" viewBox="0 0 661 130" fill="none" xmlns="http://www.w3.org/2000/svg">
<path d="M163.436 47.1211H0.328613V123.428H163.436V47.1211Z" fill="url(#paint0_linear_2996_2734)"/>
<path d="M99.5722 123.353H296.935L327.967 62.4873H91.4019V99.9659L99.5722 123.353Z" fill="#0557CE"/>
<path d="M469.636 90.1468H425.037L418.666 75.3052L475.708 71.4824L469.636 90.1468Z" fill="#003CA6"/>
<path d="M534.849 0.198242H15.9951V9.34304H534.849V0.198242Z" fill="#86ADF2"/>
<path d="M648.934 90.1465H568.055V123.353H648.934V90.1465Z" fill="#0557CE"/>
<path d="M424.812 123.428H568.055V90.1465H413.418L424.812 123.428Z" fill="url(#paint1_linear_2996_2734)"/>
<path d="M189.221 77.1046H342.884L355.102 69.459H189.221C172.881 69.459 181.726 71.183 181.726 73.2818C181.726 75.3806 185.099 77.1046 189.221 77.1046Z" fill="#86ADF2"/>
<path d="M655.98 119.156H635.067C634.168 119.156 633.343 118.481 633.268 117.581C631.319 102.59 618.501 90.9716 602.985 90.9716C587.469 90.9716 572.403 104.614 572.403 121.554C572.403 138.495 572.403 122.604 572.403 122.604C572.403 123.653 571.803 124.478 570.829 124.478H569.929C568.88 124.478 568.055 123.653 568.055 122.604V24.1098C568.055 23.0603 568.88 22.3857 569.929 22.3857H600.137C600.961 22.3857 601.711 22.9104 601.936 23.735H634.617C634.767 24.4845 652.607 80.4776 652.607 80.4776C654.631 81.0023 656.055 82.8013 656.055 84.9001V119.156H655.98Z" fill="url(#paint2_linear_2996_2734)"/>
<path d="M645.786 121.479H635.592C634.516 121.479 633.643 122.352 633.643 123.428C633.643 124.505 634.516 125.377 635.592 125.377H645.786C646.862 125.377 647.735 124.505 647.735 123.428C647.735 122.352 646.862 121.479 645.786 121.479Z" fill="url(#paint3_linear_2996_2734)"/>
<path d="M645.786 116.082H635.592C634.516 116.082 633.643 116.955 633.643 118.031C633.643 119.107 634.516 119.98 635.592 119.98H645.786C646.862 119.98 647.735 119.107 647.735 118.031C647.735 116.955 646.862 116.082 645.786 116.082Z" fill="url(#paint4_linear_2996_2734)"/>
<path d="M645.786 110.61H635.592C634.516 110.61 633.643 111.483 633.643 112.559C633.643 113.636 634.516 114.508 635.592 114.508H645.786C646.862 114.508 647.735 113.636 647.735 112.559C647.735 111.483 646.862 110.61 645.786 110.61Z" fill="url(#paint5_linear_2996_2734)"/>
<path d="M500.444 83.1011H560.56C562.134 83.1011 563.483 82.4265 563.483 81.6019V78.6036C563.483 77.7791 562.209 77.1045 560.56 77.1045H500.444C498.87 77.1045 497.521 77.7791 497.521 78.6036V81.6019C497.521 82.4265 498.795 83.1011 500.444 83.1011Z" fill="url(#paint6_linear_2996_2734)"/>
<path d="M500.444 90.147H560.56C562.134 90.147 563.483 89.4724 563.483 88.6478V85.6495C563.483 84.825 562.209 84.1504 560.56 84.1504H500.444C498.87 84.1504 497.521 84.825 497.521 85.6495V88.6478C497.521 89.4724 498.795 90.147 500.444 90.147Z" fill="url(#paint7_linear_2996_2734)"/>
<path d="M601.262 28.532H630.27C631.994 28.532 633.568 29.3565 634.018 30.4809L641.963 54.4672C642.713 56.1912 640.839 57.8403 638.215 57.8403H601.262C599.088 57.8403 597.364 56.641 597.364 55.1418V31.1555C597.364 29.6564 599.088 28.457 601.262 28.457V28.532Z" fill="#003CA6"/>
<path d="M600.287 27.6326H629.295C631.019 27.6326 632.594 28.4571 633.043 29.5815L640.989 53.5678C641.738 55.2918 639.864 56.9409 637.241 56.9409H600.287C598.113 56.9409 596.389 55.7416 596.389 54.2424V30.2561C596.389 28.757 598.113 27.5576 600.287 27.5576V27.6326Z" fill="url(#paint8_linear_2996_2734)"/>
<path d="M0.328868 74.181V25.084C0.328868 16.389 7.37485 9.41797 15.9949 9.41797H529.902C539.796 9.41797 547.817 17.4384 547.817 27.3327V49.4451C547.817 58.8148 540.546 66.6104 531.176 67.3599L206.087 91.4212L0.253906 74.256L0.328868 74.181Z" fill="url(#paint9_linear_2996_2734)"/>
<path d="M96.5739 79.1279H174.829C199.265 79.1279 219.054 98.9167 219.054 123.353H52.3491C52.3491 98.9167 72.1378 79.1279 96.5739 79.1279Z" fill="#003CA6"/>
<path d="M582.147 9.64258C584.771 9.64258 586.944 11.8163 586.944 14.4398V22.3103H577.275V14.4398C577.275 11.8163 579.449 9.64258 582.072 9.64258H582.147Z" fill="url(#paint10_linear_2996_2734)"/>
<path d="M529.902 9.34252H335.463L372.642 79.1278L531.176 67.2095C540.546 66.5349 547.817 58.7394 547.817 49.2947V27.1823C547.817 17.288 539.796 9.26758 529.902 9.26758V9.34252Z" fill="url(#paint11_linear_2996_2734)"/>
<path d="M660.702 110.985V125.527C660.702 126.352 660.028 126.951 659.278 126.951H650.658C649.759 126.951 648.934 126.202 648.934 125.227V111.21C648.934 110.311 649.684 109.486 650.658 109.486H659.278C660.103 109.486 660.702 110.161 660.702 110.91V110.985Z" fill="#003CA6"/>
<path d="M655.83 98.3926H650.058C649.437 98.3926 648.934 98.896 648.934 99.5169V104.689C648.934 105.31 649.437 105.813 650.058 105.813H655.83C656.451 105.813 656.954 105.31 656.954 104.689V99.5169C656.954 98.896 656.451 98.3926 655.83 98.3926Z" fill="white"/>
<path d="M651.108 98.3926H650.058C649.437 98.3926 648.934 98.896 648.934 99.5169V104.689C648.934 105.31 649.437 105.813 650.058 105.813H651.108C651.729 105.813 652.232 105.31 652.232 104.689V99.5169C652.232 98.896 651.729 98.3926 651.108 98.3926Z" fill="#0557CE"/>
<path d="M655.83 89.8467H650.058C649.437 89.8467 648.934 90.3501 648.934 90.971V96.1431C648.934 96.764 649.437 97.2674 650.058 97.2674H655.83C656.451 97.2674 656.954 96.764 656.954 96.1431V90.971C656.954 90.3501 656.451 89.8467 655.83 89.8467Z" fill="white"/>
<path d="M651.108 89.8467H650.058C649.437 89.8467 648.934 90.3501 648.934 90.971V96.1431C648.934 96.764 649.437 97.2674 650.058 97.2674H651.108C651.729 97.2674 652.232 96.764 652.232 96.1431V90.971C652.232 90.3501 651.729 89.8467 651.108 89.8467Z" fill="#0557CE"/>
<path d="M516.56 90.1465L529.677 104.014L539.047 113.458H530.052L537.023 123.428H568.055V90.1465H516.56Z" fill="#0072BB"/>
<path d="M503.967 108.735C505.166 108.735 506.365 109.26 507.19 110.16L509.514 112.708C509.963 113.158 510.563 113.458 511.163 113.458H519.933C522.406 113.458 519.933 114.507 521.507 116.381L531.926 123.502H522.406C519.933 123.502 517.534 122.453 515.885 120.579L510.713 114.882C510.038 114.132 509.064 113.683 508.089 113.683H507.64C506.44 113.683 505.241 113.158 504.417 112.258L501.193 108.735H503.967Z" fill="#0072BB"/>
<path d="M487.326 94.5693H489.95C491.149 94.5693 492.198 95.094 493.023 95.9186L496.021 99.2167H493.398C492.198 99.2167 491.149 98.692 490.324 97.8675L487.326 94.5693Z" fill="#0072BB"/>
<path d="M514.611 110.086C513.786 109.111 512.512 108.586 511.237 108.586H509.513C507.19 108.586 504.941 107.612 503.367 105.888L497.295 99.2168H502.542C504.866 99.2168 507.115 100.191 508.689 101.915L513.186 106.862C513.711 107.462 514.461 107.762 515.21 107.762L514.611 110.086Z" fill="#0072BB"/>
<path d="M510.863 94.3438H513.561C514.761 94.3438 515.96 94.8684 516.784 95.7679L519.933 99.216H517.234C516.035 99.216 514.836 98.6913 514.011 97.7918L510.863 94.3438Z" fill="#2FB4E9"/>
<path d="M491.674 108.436H494.222C495.347 108.436 496.471 108.885 497.221 109.785L500.219 113.083H497.67C496.546 113.083 495.422 112.633 494.672 111.734L491.674 108.436Z" fill="#2FB4E9"/>
<path d="M539.047 104.014H541.595C542.72 104.014 543.844 104.463 544.594 105.363L547.592 108.661H545.043C543.919 108.661 542.795 108.211 542.045 107.312L539.047 104.014Z" fill="#2FB4E9"/>
<path d="M520.757 99.291H526.004C528.328 99.291 530.577 100.265 532.226 102.064L538.297 108.811H533.05C530.727 108.811 528.478 107.836 526.829 106.037L520.757 99.291Z" fill="#2FB4E9"/>
<path d="M526.829 115.632H530.802L520.458 107.837H520.982C524.88 107.837 528.553 109.486 531.176 112.334L541.221 123.428H533.875L526.829 115.632Z" fill="#EE8900"/>
<path d="M519.783 107.837L526.829 115.632H522.856L533.2 123.428H532.675C528.778 123.428 525.105 121.779 522.481 118.931L512.437 107.837H519.783Z" fill="#EE8900"/>
<defs>
<linearGradient id="paint0_linear_2996_2734" x1="163.436" y1="85.2743" x2="0.328613" y2="85.2743" gradientUnits="userSpaceOnUse">
<stop stop-color="#779FE7"/>
<stop offset="0.2" stop-color="#5083DD"/>
<stop offset="0.3" stop-color="#447ADA"/>
<stop offset="0.4" stop-color="#3D75D8"/>
<stop offset="0.6" stop-color="#3C74D8"/>
</linearGradient>
<linearGradient id="paint1_linear_2996_2734" x1="568.055" y1="106.787" x2="413.418" y2="106.787" gradientUnits="userSpaceOnUse">
<stop offset="0.2" stop-color="#D2E2FF"/>
<stop offset="0.3" stop-color="#D5E4FF"/>
<stop offset="0.6" stop-color="#F3F7FF"/>
<stop offset="0.8" stop-color="white"/>
</linearGradient>
<linearGradient id="paint2_linear_2996_2734" x1="612.055" y1="130.324" x2="612.055" y2="-5.72323" gradientUnits="userSpaceOnUse">
<stop offset="0.2" stop-color="#D2E2FF"/>
<stop offset="0.3" stop-color="#D5E4FF"/>
<stop offset="0.6" stop-color="#F3F7FF"/>
<stop offset="0.8" stop-color="white"/>
</linearGradient>
<linearGradient id="paint3_linear_2996_2734" x1="647.66" y1="123.428" x2="633.643" y2="123.428" gradientUnits="userSpaceOnUse">
<stop stop-color="#5889E0"/>
<stop offset="1" stop-color="#ABCAFF"/>
</linearGradient>
<linearGradient id="paint4_linear_2996_2734" x1="647.66" y1="118.031" x2="633.643" y2="118.031" gradientUnits="userSpaceOnUse">
<stop stop-color="#5889E0"/>
<stop offset="1" stop-color="#ABCAFF"/>
</linearGradient>
<linearGradient id="paint5_linear_2996_2734" x1="647.66" y1="112.559" x2="633.643" y2="112.559" gradientUnits="userSpaceOnUse">
<stop stop-color="#5889E0"/>
<stop offset="1" stop-color="#ABCAFF"/>
</linearGradient>
<linearGradient id="paint6_linear_2996_2734" x1="497.521" y1="80.1028" x2="563.408" y2="80.1028" gradientUnits="userSpaceOnUse">
<stop stop-color="#061833"/>
<stop offset="1" stop-color="#003387"/>
</linearGradient>
<linearGradient id="paint7_linear_2996_2734" x1="497.521" y1="87.1487" x2="563.408" y2="87.1487" gradientUnits="userSpaceOnUse">
<stop stop-color="#061833"/>
<stop offset="1" stop-color="#003387"/>
</linearGradient>
<linearGradient id="paint8_linear_2996_2734" x1="618.801" y1="56.8659" x2="618.801" y2="27.6326" gradientUnits="userSpaceOnUse">
<stop stop-color="#CBDDFD"/>
<stop offset="0.3" stop-color="#BAD1F9"/>
<stop offset="0.5" stop-color="#9EBCF1"/>
<stop offset="0.7" stop-color="#779FE7"/>
<stop offset="1" stop-color="#3C74D8"/>
</linearGradient>
<linearGradient id="paint9_linear_2996_2734" x1="274.073" y1="9.41797" x2="274.073" y2="91.4212" gradientUnits="userSpaceOnUse">
<stop stop-color="#CBDDFD"/>
<stop offset="0.2" stop-color="#BAD1F9"/>
<stop offset="0.3" stop-color="#9EBCF1"/>
<stop offset="0.5" stop-color="#779FE7"/>
<stop offset="0.6" stop-color="#3C74D8"/>
</linearGradient>
<linearGradient id="paint10_linear_2996_2734" x1="582.072" y1="9.64258" x2="582.072" y2="24.2592" gradientUnits="userSpaceOnUse">
<stop stop-color="#FF804A"/>
<stop offset="1" stop-color="#FFB085"/>
</linearGradient>
<linearGradient id="paint11_linear_2996_2734" x1="441.602" y1="79.1278" x2="441.602" y2="9.34253" gradientUnits="userSpaceOnUse">
<stop offset="0.3" stop-color="#D8E6FF"/>
<stop offset="0.4" stop-color="#EDF4FF"/>
<stop offset="0.5" stop-color="#FAFCFF"/>
<stop offset="0.6" stop-color="white"/>
</linearGradient>
</defs>
</svg>
