<svg width="213" height="32" viewBox="0 0 213 32" fill="none" xmlns="http://www.w3.org/2000/svg">
<path d="M15.5971 31.5685C6.98387 31.5685 0 24.6106 0 16.0293C0 7.44814 6.98387 0.490234 15.5971 0.490234H197.403C206.018 0.490234 213 7.44814 213 16.0293C213 24.6121 206.018 31.5685 197.403 31.5685H15.5971Z" fill="#FF5500"/>
<path d="M129.135 8.60359H115.259V26.9058H111.482V5.16232L129.135 5.15133V8.60359ZM80.6249 8.60359V5.15133L60.6581 5.16232V26.9058H80.6249V23.4535H64.4353V17.7547H78.1714V14.3024H64.4353V8.60359H80.6249ZM50.8647 5.16232V14.3024H36.2745V5.15133L32.4973 5.16232V26.9058H36.2745V17.7547H50.8647V26.9058H54.6418V5.15133L50.8647 5.16232ZM150.886 5.16232L136.384 21.5994V5.15133L132.607 5.16232V26.9058H136.384L150.886 10.4592V26.9058H154.663V5.15133L150.886 5.16232ZM180.875 5.16232V26.9058H177.097V20.5225H168.836L164.496 26.9058H159.877L164.745 20.0044C161.741 18.9133 159.65 16.1989 159.65 12.8377C159.65 8.44346 163.221 5.15133 167.739 5.15133L180.875 5.16232ZM177.099 17.0718V8.60359H168.059C165.506 8.60359 163.432 10.2897 163.432 12.8377C163.432 15.3857 165.508 17.0718 168.059 17.0718H177.099ZM107.243 12.8377C107.243 17.2319 103.672 20.524 99.1545 20.524H89.7959V26.9073H86.0188V5.16232L99.1545 5.15133C103.671 5.15133 107.243 8.44346 107.243 12.8377ZM103.463 12.8377C103.463 10.2913 101.387 8.60359 98.8362 8.60359H89.7959V17.0718H98.8362C101.387 17.0718 103.463 15.3857 103.463 12.8377ZM16.1329 4.68506C11.2432 4.68506 6.68604 7.51406 5.04565 11.767H9.34124C10.6586 9.44664 12.9072 8.13732 16.1329 8.13732C20.0566 8.13732 23.5674 10.5503 24.3978 14.3024H13.6746V17.7547H24.3978C23.5674 21.5068 20.0566 23.9198 16.1329 23.9198C12.9072 23.9198 10.6586 22.6105 9.34124 20.2901H5.04723C6.68762 24.543 11.2448 27.372 16.1344 27.372C22.8031 27.372 28.3625 22.915 28.3625 16.0278C28.3625 9.14364 22.8016 4.68506 16.1329 4.68506ZM185.893 16.0293C185.893 22.2949 190.991 27.3736 197.278 27.3736C203.566 27.3736 208.663 22.2949 208.663 16.0293C208.663 9.76533 203.566 4.68506 197.278 4.68506C190.991 4.68506 185.893 9.76376 185.893 16.0293ZM200.427 17.7547C199.645 17.7547 199.012 18.3858 199.012 19.1645V23.8601L195.547 23.868V19.1645C195.547 18.3858 194.913 17.7547 194.132 17.7547H189.411V14.304H194.132C194.913 14.304 195.547 13.6729 195.547 12.8942V8.18913H199.012V12.8926C199.012 13.6713 199.645 14.3024 200.427 14.3024H205.14L205.148 17.7547H200.427Z" fill="white"/>
</svg>
