<svg width="1117" height="665" viewBox="0 0 1117 665" fill="none" xmlns="http://www.w3.org/2000/svg">
<g clip-path="url(#clip0_3053_22)">
<path d="M422.947 349.792C423.587 349.478 424.227 349.085 424.867 348.731C425.507 348.378 426.205 348.024 426.845 347.631C427.252 347.395 427.66 347.198 428.125 346.923C428.94 346.491 429.696 346.019 430.51 345.587C431.499 345.037 432.43 344.487 433.419 343.936C434.99 343.072 436.561 342.168 438.131 341.303C438.888 340.871 439.586 340.478 440.342 340.045C441.506 339.417 442.611 338.748 443.716 338.12C444.415 337.766 445.055 337.373 445.694 337.019C449.418 334.936 453.025 332.892 456.457 330.927C456.457 330.927 456.515 330.849 456.574 330.849C466.289 325.307 474.609 320.551 480.368 317.211C481.241 316.739 482.055 316.267 482.811 315.835C498.112 307.149 533.949 289.659 554.777 279.716C563.329 275.589 569.437 272.799 570.368 272.406C570.601 272.327 570.892 272.209 571.182 272.13C571.299 272.13 571.415 272.091 571.532 272.052C571.764 271.973 571.997 271.934 572.288 271.855C572.404 271.855 572.637 271.816 572.753 271.777C572.986 271.777 573.277 271.698 573.568 271.659C573.8 271.58 573.975 271.58 574.15 271.541C574.382 271.541 574.673 271.462 574.906 271.462C575.197 271.384 575.488 271.384 575.778 271.344C575.895 271.344 576.069 271.344 576.186 271.266C578.222 271.03 580.549 270.834 582.876 270.637C586.599 270.362 590.323 270.165 592.824 270.008C598.758 269.694 600.853 267.296 602.54 267.611C604.227 267.964 610.976 271.384 613.128 272.052C613.535 272.209 616.91 274.096 622.262 277.083C633.49 283.41 653.387 294.769 672.352 305.341C674.796 304.241 677.239 303.101 679.683 302C681.312 301.293 682.824 300.428 684.337 299.564C684.628 299.367 684.919 299.21 685.21 299.013C686.664 298.149 688.06 297.206 689.456 296.223L689.747 296.026C690.562 295.437 691.376 294.808 692.191 294.179C692.249 294.14 692.365 294.022 692.482 293.983C694.343 292.568 696.089 291.153 697.834 289.699C698.358 289.266 698.881 288.873 699.405 288.441C700.859 287.223 702.255 286.083 703.71 284.982C703.826 284.943 703.884 284.825 704.001 284.786C707.782 281.838 712.32 279.401 716.858 277.083C717.789 276.65 718.661 276.179 719.65 275.746C721.163 275 722.676 274.292 724.188 273.545C726.341 272.445 728.552 271.384 730.588 270.205C731.228 269.851 731.868 269.497 732.508 269.143C733.38 268.672 734.311 268.161 735.184 267.689C736.405 266.982 737.569 266.353 738.791 265.646C739.198 265.41 739.605 265.174 740.012 264.938C741.583 263.995 743.154 263.052 744.725 262.069C746.935 260.615 749.088 259.121 751.066 257.51C751.997 256.763 752.869 255.977 753.742 255.152C753.8 255.073 753.859 255.073 753.917 254.995C754.848 254.13 755.72 253.265 756.535 252.322C757 251.772 757.524 251.339 758.047 250.868C759.444 249.571 761.014 248.392 762.701 247.291C763.167 246.977 763.574 246.702 764.04 246.427C764.912 245.876 765.843 245.326 766.774 244.776C769.857 243.007 773.057 241.278 775.966 239.431C776.315 239.234 776.664 238.998 776.955 238.763C777.478 238.409 778.06 238.016 778.526 237.662C779.224 237.073 779.98 236.562 780.62 235.933C781.434 235.776 782.249 235.618 783.122 235.461C783.18 235.461 783.296 235.461 783.412 235.422C783.471 235.422 783.529 235.422 783.587 235.422C783.703 235.422 783.936 235.383 784.052 235.343C784.052 235.343 784.111 235.343 784.169 235.343C784.692 235.265 785.158 235.147 785.565 235.107C785.623 235.107 785.681 235.107 785.798 235.107C786.961 234.911 788.183 234.714 789.405 234.557C789.463 234.557 789.521 234.557 789.637 234.557C789.754 234.557 789.696 234.557 789.754 234.557C790.277 234.479 790.743 234.479 791.208 234.439C791.266 234.439 791.383 234.439 791.441 234.439C792.255 234.361 793.012 234.321 793.768 234.282C796.502 234.203 799.353 234.439 802.087 235.107C810.29 237.112 815.061 244.029 822.391 247.37C823.671 247.92 825.824 253.383 827.976 254.798C829.14 255.584 830.245 256.331 831.467 257.038C832.514 257.746 833.677 258.453 834.899 259.121C836.295 259.986 837.75 260.851 839.204 261.676C841.473 262.934 843.684 264.191 846.011 265.37C847.291 266.039 848.513 266.667 849.793 267.296C851.014 267.925 852.294 268.554 853.574 269.143C855.785 270.205 857.995 271.227 860.206 272.248C861.021 272.641 861.777 272.995 862.591 273.349C865.791 274.803 869.049 276.179 872.307 277.594C875.565 278.969 878.823 280.345 882.139 281.72C896.974 287.812 911.926 293.629 926.004 300.193C930.077 302.079 934.266 303.848 938.396 305.577C940.316 306.363 942.178 307.149 944.039 307.896C949.159 309.979 953.988 313.988 959.922 315.049C962.307 315.481 965.099 314.617 968.125 315.167C970.626 315.599 972.837 317.25 975.164 318.232C976.619 318.822 978.015 319.333 979.411 319.765C979.469 319.765 979.586 319.765 979.702 319.805C980.458 320.04 981.156 320.237 981.971 320.433C984.705 321.102 987.556 321.612 990.465 322.438C990.581 322.438 990.756 322.516 990.872 322.516C994.072 319.529 998.144 317.368 1001.63 314.735C1005.94 311.551 1010.24 308.446 1013.15 304.005C1015.83 299.996 1020.95 297.834 1023.86 294.219C1025.78 293.668 1027.76 293.157 1029.73 293.118C1030.96 293.079 1032.24 293.197 1033.4 293.59C1037.06 294.808 1039.16 298.935 1042.42 300.939C1043 301.254 1043.99 304.555 1044.92 305.341C1057.78 316.857 1074.12 323.538 1088.43 332.499C1091.05 334.111 1093.79 335.604 1096.46 337.098C1098.67 338.355 1100.88 340.714 1103.5 341.382C1104.55 341.617 1105.83 341.146 1107.11 341.46C1108.22 341.735 1109.2 342.718 1110.25 343.307C1110.89 343.661 1111.53 343.936 1112.11 344.211H1112.23C1112.58 344.369 1112.93 344.487 1113.22 344.604C1114.44 344.998 1115.72 349.36 1117 349.871H422.947V349.792Z" fill="url(#paint0_linear_3053_22)"/>
<path d="M1117.06 350.265H961.143H610.51H594.511H288.151V342.876H288.267C288.616 342.837 288.965 342.798 289.256 342.758C289.605 342.719 289.954 342.68 290.303 342.601C290.943 342.522 291.642 342.405 292.34 342.287C292.572 342.247 292.805 342.208 292.98 342.169C293.736 342.051 294.492 341.894 295.248 341.736C295.365 341.736 295.481 341.697 295.598 341.658C297.052 341.343 298.448 340.99 299.844 340.636C300.019 340.597 300.194 340.557 300.426 340.518C301.706 340.204 303.044 339.889 304.44 339.614C307.64 339.024 310.491 339.339 313.4 338.474C315.669 337.806 317.647 337.531 320.148 337.295C320.497 337.295 320.846 337.217 321.195 337.217C321.835 337.138 322.534 337.099 323.232 337.02C328.584 336.391 334.053 335.212 338.765 334.033C339.23 333.915 339.638 333.797 340.045 333.719C340.568 333.561 341.15 333.443 341.732 333.286C342.43 333.09 343.128 332.933 343.885 332.736C344.699 332.54 345.513 332.304 346.328 332.107C346.561 332.068 346.793 331.989 347.026 331.95C347.259 331.911 347.492 331.832 347.724 331.793C349.295 331.4 350.866 331.046 352.378 330.692C354.415 330.181 356.509 329.67 358.603 329.199C359.418 329.002 360.232 328.766 360.989 328.531C361.163 328.491 361.279 328.452 361.454 328.373C362.21 328.138 362.967 327.902 363.665 327.627H363.839C364.247 327.391 364.654 327.234 365.119 327.076C365.119 327.076 365.236 327.037 365.294 327.037C366.225 326.644 367.155 326.251 368.028 325.897C369.017 325.465 370.064 325.033 371.053 324.64C371.053 324.64 371.17 324.6 371.228 324.6C373.206 323.814 375.475 323.146 377.86 322.517C378.325 322.399 378.791 322.282 379.256 322.164C380.071 321.967 380.827 321.771 381.641 321.574C382.747 321.299 383.852 320.985 384.958 320.67C385.307 320.592 385.598 320.474 385.947 320.395C386.412 320.277 386.877 320.12 387.343 320.002C387.925 319.806 388.565 319.648 389.204 319.452C389.379 319.373 389.612 319.334 389.844 319.255C390.659 319.019 391.473 318.744 392.23 318.469C393.393 318.076 394.44 317.683 395.488 317.251C395.953 317.054 396.418 316.819 396.884 316.622C396.884 316.622 396.942 316.622 397 316.583C397.466 316.347 397.931 316.111 398.338 315.875C398.571 315.718 398.862 315.6 399.095 315.482C399.793 315.128 400.607 314.814 401.48 314.539C401.713 314.46 401.945 314.382 402.178 314.303C402.643 314.146 403.109 313.989 403.574 313.871C405.203 313.399 406.832 312.928 408.287 312.417C408.461 312.377 408.636 312.299 408.81 312.22C409.101 312.141 409.334 312.024 409.625 311.906C409.974 311.748 410.381 311.591 410.672 311.434C411.079 311.395 411.544 311.355 411.952 311.316C411.952 311.316 412.068 311.316 412.126 311.316C412.126 311.316 412.126 311.316 412.243 311.316C412.301 311.316 412.417 311.316 412.475 311.316C412.708 311.316 412.999 311.277 413.173 311.238C413.173 311.238 413.232 311.238 413.29 311.238C413.93 311.198 414.57 311.12 415.151 311.08C415.151 311.08 415.21 311.08 415.268 311.08C415.501 311.08 415.791 311.08 416.024 311.08C416.024 311.08 416.082 311.08 416.14 311.08C416.548 311.08 416.955 311.08 417.362 311.041C418.758 311.041 420.213 311.08 421.609 311.277C425.798 311.827 428.241 313.674 432.023 314.578C432.663 314.735 433.768 316.19 434.873 316.583C435.455 316.779 436.037 316.976 436.677 317.172C437.201 317.369 437.841 317.565 438.422 317.722C439.12 317.958 439.877 318.194 440.633 318.43C441.797 318.784 442.96 319.098 444.124 319.412C444.764 319.609 445.404 319.766 446.043 319.923C446.683 320.081 447.323 320.277 447.963 320.434C449.069 320.709 450.232 320.985 451.396 321.26C451.803 321.378 452.21 321.456 452.618 321.574C455.934 322.36 459.308 323.107 462.682 323.814C470.303 325.465 477.983 327.037 485.197 328.806C487.291 329.317 489.444 329.788 491.538 330.26C492.527 330.456 493.516 330.692 494.447 330.889C497.065 331.439 499.566 332.54 502.592 332.815C503.813 332.933 505.268 332.697 506.78 332.815C508.06 332.933 509.224 333.365 510.387 333.64C511.144 333.797 511.842 333.954 512.54 334.072C512.54 334.072 512.656 334.072 512.714 334.072C513.122 334.151 513.471 334.19 513.878 334.23C515.274 334.426 516.729 334.544 518.241 334.78C518.299 334.78 518.416 334.78 518.474 334.78C520.103 333.994 522.197 333.404 524.001 332.697C526.212 331.832 528.422 331.007 529.935 329.788C531.273 328.688 533.891 328.138 535.462 327.155C536.451 326.998 537.44 326.88 538.487 326.841C539.127 326.841 539.767 326.841 540.407 326.959C542.268 327.273 543.374 328.413 545.003 328.924C545.294 329.002 545.817 329.906 546.283 330.103C552.857 333.208 561.292 335.016 568.623 337.413C569.961 337.845 571.357 338.238 572.753 338.671C573.917 339.024 575.022 339.653 576.36 339.811C576.884 339.889 577.524 339.732 578.222 339.811C578.804 339.889 579.327 340.164 579.851 340.321C580.2 340.4 580.491 340.479 580.84 340.557C580.84 340.557 580.84 340.557 580.898 340.557C581.073 340.597 581.247 340.636 581.422 340.675C582.062 340.793 582.701 340.872 583.341 340.99C584.563 341.225 585.727 341.343 586.89 341.501C588.17 341.658 589.392 341.854 590.672 342.169C591.137 342.287 591.544 342.444 591.952 342.562C592.533 342.404 593.115 342.247 593.639 342.051C593.988 341.972 594.279 341.854 594.628 341.776C594.977 341.697 595.326 341.579 595.617 341.501C595.849 341.422 596.024 341.383 596.257 341.304C596.664 341.186 597.071 341.068 597.478 340.95C598.002 340.793 598.467 340.636 598.991 340.518C599.806 340.282 600.62 340.046 601.435 339.811C601.842 339.693 602.191 339.575 602.598 339.457C603.18 339.3 603.762 339.103 604.343 338.946C604.692 338.867 605.041 338.749 605.332 338.631C607.252 338.081 609.114 337.531 610.859 336.981C615.804 335.487 620.109 334.19 623.076 333.286C623.542 333.168 623.949 333.011 624.356 332.933C632.21 330.574 650.594 325.858 661.299 323.186C665.72 322.085 668.804 321.299 669.327 321.22C669.443 321.22 669.56 321.181 669.734 321.142C669.734 321.142 669.851 321.142 669.909 321.142C670.025 321.142 670.142 321.142 670.316 321.102C670.374 321.102 670.491 321.102 670.549 321.102C670.665 321.102 670.782 321.102 670.956 321.102C671.072 321.102 671.131 321.102 671.247 321.102C671.363 321.102 671.48 321.102 671.654 321.102C671.829 321.102 671.945 321.102 672.12 321.102C672.178 321.102 672.294 321.102 672.352 321.102C673.4 321.024 674.563 320.985 675.785 320.945C677.705 320.867 679.624 320.827 680.904 320.788C683.93 320.709 685.035 320.041 685.908 320.159C686.78 320.238 690.213 321.181 691.318 321.338C691.551 321.378 693.296 321.889 696.03 322.714C701.79 324.404 712.029 327.47 721.745 330.339C723.025 330.024 724.246 329.749 725.526 329.435C726.341 329.238 727.155 329.002 727.911 328.766C728.086 328.727 728.202 328.688 728.377 328.609C729.133 328.373 729.831 328.138 730.529 327.863H730.704C731.111 327.627 731.518 327.469 731.984 327.312C731.984 327.312 732.1 327.273 732.158 327.273C733.089 326.88 734.02 326.487 734.893 326.133C735.125 326.015 735.416 325.897 735.707 325.779C736.463 325.465 737.162 325.151 737.918 324.836C737.918 324.836 738.034 324.797 738.092 324.797C740.07 324.011 742.339 323.343 744.725 322.714C745.19 322.596 745.655 322.478 746.121 322.36C746.877 322.164 747.692 321.967 748.448 321.771C749.553 321.496 750.659 321.181 751.764 320.867C752.113 320.788 752.404 320.67 752.753 320.592C753.219 320.474 753.684 320.316 754.149 320.199C754.789 320.002 755.371 319.845 756.011 319.648C756.186 319.57 756.418 319.53 756.651 319.452C757.465 319.216 758.28 318.941 759.036 318.666C760.2 318.273 761.247 317.88 762.294 317.447C762.76 317.251 763.225 317.015 763.69 316.819C763.69 316.819 763.749 316.819 763.807 316.779C764.272 316.543 764.738 316.308 765.145 316.072C765.377 315.915 765.668 315.797 765.901 315.679C766.599 315.325 767.414 315.011 768.286 314.735C768.519 314.657 768.752 314.578 768.985 314.5C769.45 314.342 769.915 314.185 770.381 314.067C771.951 313.596 773.581 313.124 775.093 312.613C775.268 312.574 775.442 312.495 775.617 312.417C775.908 312.338 776.198 312.22 776.431 312.102C776.78 311.945 777.187 311.788 777.478 311.631C777.886 311.591 778.351 311.552 778.758 311.513C778.758 311.513 778.875 311.513 778.933 311.513C778.933 311.513 778.933 311.513 779.049 311.513C779.107 311.513 779.224 311.513 779.282 311.513C779.515 311.513 779.805 311.473 779.98 311.434C779.98 311.434 780.038 311.434 780.096 311.434C780.678 311.395 781.318 311.316 781.958 311.277C781.958 311.277 782.016 311.277 782.074 311.277C782.307 311.277 782.598 311.277 782.831 311.277H782.947C783.354 311.277 783.761 311.277 784.169 311.238C785.565 311.238 787.019 311.277 788.416 311.473C792.604 312.024 795.048 313.871 798.829 314.775C799.469 314.932 800.575 316.386 801.68 316.779C802.262 316.976 802.844 317.172 803.483 317.369C804.007 317.565 804.647 317.762 805.229 317.919C805.927 318.155 806.683 318.391 807.44 318.626C808.603 318.98 809.767 319.295 810.93 319.609C811.57 319.806 812.21 319.963 812.85 320.12C813.49 320.277 814.13 320.474 814.77 320.631C815.875 320.906 817.039 321.181 818.202 321.456C818.61 321.574 819.017 321.653 819.424 321.771C821.053 322.164 822.74 322.557 824.427 322.91C826.114 323.264 827.802 323.657 829.489 324.011C837.11 325.662 844.789 327.234 852.003 329.002C854.098 329.513 856.25 329.985 858.344 330.456C859.334 330.653 860.323 330.889 861.253 331.085C863.871 331.636 866.373 332.736 869.398 333.011C870.62 333.129 872.074 332.893 873.587 333.011C874.867 333.129 876.03 333.561 877.194 333.837C877.95 333.994 878.648 334.151 879.346 334.269C879.346 334.269 879.463 334.269 879.521 334.269C879.928 334.347 880.277 334.387 880.685 334.426C882.081 334.623 883.535 334.74 885.048 334.976C885.106 334.976 885.222 334.976 885.28 334.976C886.909 334.19 889.004 333.601 890.807 332.893C893.018 332.029 895.229 331.203 896.741 329.985C898.138 328.884 900.756 328.334 902.268 327.352C903.257 327.194 904.246 327.076 905.293 327.037C905.933 327.037 906.573 327.037 907.213 327.155C909.075 327.47 910.18 328.609 911.867 329.12C912.158 329.199 912.682 330.103 913.147 330.299C919.78 333.404 928.157 335.212 935.487 337.61C936.825 338.042 938.222 338.435 939.618 338.867C940.781 339.221 941.887 339.85 943.225 340.007C943.748 340.086 944.388 339.928 945.086 340.007C945.668 340.086 946.192 340.361 946.715 340.518C947.065 340.597 947.355 340.675 947.646 340.754C947.646 340.754 947.646 340.754 947.704 340.754C947.879 340.793 948.054 340.832 948.228 340.872C948.868 340.99 949.508 341.068 950.148 341.186C951.37 341.422 952.533 341.54 953.697 341.697C954.977 341.854 956.198 342.051 957.478 342.365C957.944 342.483 958.351 342.64 958.758 342.758C959.34 342.601 959.922 342.444 960.445 342.247C960.736 342.169 961.085 342.051 961.376 341.972C961.725 341.894 962.074 341.776 962.365 341.697C962.598 341.618 962.772 341.579 963.005 341.501C963.412 341.383 963.82 341.265 964.227 341.147C964.75 340.99 965.216 340.832 965.739 340.714C966.554 340.479 967.368 340.243 968.183 340.007C968.59 339.889 968.939 339.771 969.346 339.653C969.928 339.496 970.51 339.3 971.092 339.142C971.441 339.064 971.79 338.946 972.139 338.828C974.059 338.278 975.862 337.727 977.666 337.177C982.611 335.684 986.916 334.387 989.883 333.483C990.348 333.365 990.756 333.208 991.105 333.129C992.21 332.815 993.548 332.422 995.061 331.989C1008.38 328.256 1034.5 321.731 1036.08 321.417C1036.19 321.417 1036.31 321.378 1036.48 321.338C1036.48 321.338 1036.6 321.338 1036.66 321.338C1036.77 321.338 1036.89 321.338 1037.06 321.299C1037.12 321.299 1037.24 321.299 1037.3 321.299C1037.41 321.299 1037.59 321.299 1037.7 321.299C1037.82 321.299 1037.94 321.299 1038 321.299C1038.11 321.299 1038.23 321.299 1038.4 321.299C1038.52 321.299 1038.69 321.299 1038.81 321.299C1038.87 321.299 1038.98 321.299 1039.04 321.299C1040.09 321.22 1041.25 321.181 1042.48 321.142C1044.39 321.063 1046.31 321.024 1047.59 320.985C1050.62 320.906 1051.73 320.238 1052.6 320.356C1053.47 320.434 1056.96 321.378 1058.01 321.535C1058.88 321.692 1082.21 328.766 1098.21 333.365C1102.8 334.701 1107.46 333.05 1110.13 333.758C1112.46 334.347 1114.96 335.094 1117.58 335.92V350.815L1117.06 350.265Z" fill="url(#paint1_linear_3053_22)"/>
<path d="M1117 0H0V402.066H1117V0Z" fill="url(#paint2_linear_3053_22)"/>
<path d="M694.053 0H0V665H694.053V0Z" fill="url(#paint3_linear_3053_22)"/>
<path d="M422.947 308.211H187.795V349.793H422.947V308.211Z" fill="#9EB5C8"/>
<path d="M275.527 336.59H239.689V349.796H275.527V336.59Z" fill="#BFD0DC"/>
<path d="M273.549 337.965H241.667V349.795H273.549V337.965Z" fill="#213F63"/>
<path d="M258.539 337.965H256.677V349.795H258.539V337.965Z" fill="#BFD0DC"/>
<g style="mix-blend-mode:multiply">
<path d="M280.821 336.746H234.454V340.087H280.821V336.746Z" fill="#9EB5C8"/>
</g>
<path d="M280.821 334.781H234.454V338.122H280.821V334.781Z" fill="#CBDDE9"/>
<path d="M357.789 336.59H321.952V349.796H357.789V336.59Z" fill="#BFD0DC"/>
<path d="M355.869 337.965H323.988V349.795H355.869V337.965Z" fill="#213F63"/>
<path d="M340.859 337.965H338.998V349.795H340.859V337.965Z" fill="#BFD0DC"/>
<g style="mix-blend-mode:multiply">
<path d="M363.083 336.746H316.716V340.087H363.083V336.746Z" fill="#9EB5C8"/>
</g>
<path d="M363.083 334.781H316.716V338.122H363.083V334.781Z" fill="#CBDDE9"/>
<path d="M375.591 333.444V313.754H220.957V333.444H375.591Z" fill="#BFD0DC"/>
<path d="M373.671 316.74H222.876V330.378H373.671V316.74Z" fill="#213F63"/>
<path d="M228.461 316.74H227.24V330.378H228.461V316.74Z" fill="#BFD0DC"/>
<path d="M237.304 316.74H236.083V330.378H237.304V316.74Z" fill="#BFD0DC"/>
<path d="M246.148 316.74H244.926V330.378H246.148V316.74Z" fill="#BFD0DC"/>
<path d="M254.932 316.74H253.71V330.378H254.932V316.74Z" fill="#BFD0DC"/>
<path d="M263.775 316.74H262.553V330.378H263.775V316.74Z" fill="#BFD0DC"/>
<path d="M272.618 316.74H271.396V330.378H272.618V316.74Z" fill="#BFD0DC"/>
<path d="M281.461 316.74H280.239V330.378H281.461V316.74Z" fill="#BFD0DC"/>
<path d="M290.246 316.74H289.024V330.378H290.246V316.74Z" fill="#BFD0DC"/>
<path d="M299.088 316.74H297.867V330.378H299.088V316.74Z" fill="#BFD0DC"/>
<path d="M307.931 316.74H306.709V330.378H307.931V316.74Z" fill="#BFD0DC"/>
<path d="M316.774 316.74H315.553V330.378H316.774V316.74Z" fill="#BFD0DC"/>
<path d="M325.559 316.74H324.337V330.378H325.559V316.74Z" fill="#BFD0DC"/>
<path d="M334.402 316.74H333.18V330.378H334.402V316.74Z" fill="#BFD0DC"/>
<path d="M343.245 316.74H342.023V330.378H343.245V316.74Z" fill="#BFD0DC"/>
<path d="M352.088 316.74H350.866V330.378H352.088V316.74Z" fill="#BFD0DC"/>
<path d="M360.873 316.74H359.651V330.378H360.873V316.74Z" fill="#BFD0DC"/>
<path d="M369.715 316.74H368.494V330.378H369.715V316.74Z" fill="#BFD0DC"/>
<g style="mix-blend-mode:multiply">
<path d="M246.612 308.211H187.795V349.793H246.612V308.211Z" fill="#9EB5C8"/>
</g>
<g style="mix-blend-mode:multiply">
<path d="M422.947 308.211H393.917V349.793H422.947V308.211Z" fill="#9EB5C8"/>
</g>
<path d="M227.53 303.928H0.348633V349.794H227.53V303.928Z" fill="#CBDDE9"/>
<path d="M408.868 303.928H385.83V349.794H408.868V303.928Z" fill="#CBDDE9"/>
<path d="M227.414 349.952V308.252H-0.291046V349.952H227.414Z" fill="#BFD0DC"/>
<path d="M224.563 314.619H2.55957V343.467H224.563V314.619Z" fill="#213F63"/>
<path d="M10.7043 314.619H8.95898V343.467H10.7043V314.619Z" fill="#BFD0DC"/>
<path d="M23.7355 314.619H21.9902V343.467H23.7355V314.619Z" fill="#BFD0DC"/>
<path d="M36.7092 314.619H34.9639V343.467H36.7092V314.619Z" fill="#BFD0DC"/>
<path d="M49.7414 314.619H47.9961V343.467H49.7414V314.619Z" fill="#BFD0DC"/>
<path d="M62.715 314.619H60.9697V343.467H62.715V314.619Z" fill="#BFD0DC"/>
<path d="M75.7463 314.619H74.001V343.467H75.7463V314.619Z" fill="#BFD0DC"/>
<path d="M88.7199 314.619H86.9746V343.467H88.7199V314.619Z" fill="#BFD0DC"/>
<path d="M101.694 314.619H99.9482V343.467H101.694V314.619Z" fill="#BFD0DC"/>
<path d="M114.725 314.619H112.979V343.467H114.725V314.619Z" fill="#BFD0DC"/>
<path d="M127.698 314.619H125.953V343.467H127.698V314.619Z" fill="#BFD0DC"/>
<path d="M140.73 314.619H138.985V343.467H140.73V314.619Z" fill="#BFD0DC"/>
<path d="M153.704 314.619H151.958V343.467H153.704V314.619Z" fill="#BFD0DC"/>
<path d="M166.735 314.619H164.99V343.467H166.735V314.619Z" fill="#BFD0DC"/>
<path d="M179.709 314.619H177.963V343.467H179.709V314.619Z" fill="#BFD0DC"/>
<path d="M192.74 314.619H190.995V343.467H192.74V314.619Z" fill="#BFD0DC"/>
<path d="M205.714 314.619H203.969V343.467H205.714V314.619Z" fill="#BFD0DC"/>
<path d="M218.745 314.619H217V343.467H218.745V314.619Z" fill="#BFD0DC"/>
<path d="M1117 349.793H0V557.704H1117V349.793Z" fill="url(#paint4_linear_3053_22)"/>
<g opacity="0.1">
<path d="M0.348633 434.098V558.215H95.5263L149.747 434.098H0.348633Z" fill="url(#paint5_linear_3053_22)"/>
<path d="M150.213 433.037L186.341 350.305H0.348633V433.037H150.213Z" fill="url(#paint6_linear_3053_22)"/>
<path d="M362.792 433.037L379.256 350.305H187.504L151.26 433.037H362.792Z" fill="url(#paint7_linear_3053_22)"/>
<path d="M150.794 434.098L96.457 558.215H337.892L362.559 434.098H150.794Z" fill="url(#paint8_linear_3053_22)"/>
<path d="M562.456 433.037L562.397 350.305H380.536L364.072 433.037H562.456Z" fill="url(#paint9_linear_3053_22)"/>
<path d="M363.839 434.098L339.172 558.215H562.514L562.456 434.098H363.839Z" fill="url(#paint10_linear_3053_22)"/>
<path d="M764.155 433.037L747.168 350.305H563.677V433.037H764.155Z" fill="url(#paint11_linear_3053_22)"/>
<path d="M563.677 434.098L563.735 558.215H789.87L764.388 434.098H563.677Z" fill="url(#paint12_linear_3053_22)"/>
<path d="M986.392 433.037L948.053 350.305H748.797L765.785 433.037H986.392Z" fill="url(#paint13_linear_3053_22)"/>
<path d="M766.017 434.098L791.441 558.215H1044.39L986.857 434.098H766.017Z" fill="url(#paint14_linear_3053_22)"/>
<path d="M1116.71 433.037V350.305H949.392L988.138 433.037H1116.71Z" fill="url(#paint15_linear_3053_22)"/>
<path d="M988.603 434.098L1046.72 558.215H1116.71V434.098H988.603Z" fill="url(#paint16_linear_3053_22)"/>
</g>
<g style="mix-blend-mode:multiply">
<path d="M138.054 303.848L142.476 295.24H143.93L148.352 303.848H146.664L145.675 301.882H140.672L139.683 303.848H137.996H138.054ZM141.196 300.9H145.21L143.174 296.852L141.138 300.9H141.196Z" fill="#9EB5C8"/>
<path d="M152.308 299.053H157.136C157.136 297.992 156.845 297.245 156.322 296.813C155.798 296.38 155.042 296.144 154.111 296.144C153.18 296.144 152.657 296.262 152.191 296.537C151.668 296.813 151.319 297.284 151.086 297.952H149.515C149.748 297.009 150.213 296.302 151.028 295.869C151.842 295.398 152.831 295.201 154.111 295.201C155.391 295.201 155.449 295.28 156.031 295.437C156.613 295.594 157.078 295.83 157.485 296.144C157.893 296.459 158.184 296.852 158.416 297.363C158.649 297.874 158.765 298.463 158.765 299.131V300.075C158.765 300.782 158.649 301.372 158.416 301.843C158.184 302.354 157.893 302.747 157.485 303.062C157.078 303.376 156.613 303.612 156.031 303.769C155.449 303.926 154.809 304.005 154.111 304.005C153.413 304.005 152.948 303.966 152.424 303.848C151.9 303.73 151.435 303.573 151.086 303.337C150.679 303.101 150.388 302.826 150.097 302.472C149.806 302.118 149.631 301.725 149.573 301.214H151.086C151.319 301.843 151.668 302.315 152.133 302.59C152.599 302.865 153.297 303.022 154.111 303.022C154.926 303.022 155.042 302.983 155.391 302.865C155.74 302.747 156.089 302.59 156.322 302.354C156.555 302.118 156.787 301.804 156.904 301.45C157.02 301.057 157.078 300.625 157.078 300.075H152.249V299.092L152.308 299.053Z" fill="#9EB5C8"/>
<path d="M163.245 300.546V303.808H161.674V295.201H165.747C167.201 295.201 168.365 295.437 169.179 295.909C169.994 296.38 170.401 297.048 170.401 297.874C170.401 298.699 169.994 299.367 169.179 299.839C168.365 300.311 167.259 300.546 165.747 300.546H163.303H163.245ZM165.689 299.603C166.794 299.603 167.55 299.446 168.016 299.171C168.481 298.896 168.714 298.463 168.714 297.913C168.714 297.363 168.481 296.97 168.016 296.655C167.55 296.38 166.794 296.223 165.689 296.223H163.245V299.603H165.689Z" fill="#9EB5C8"/>
<path d="M181.512 300.036C181.512 300.743 181.396 301.333 181.163 301.804C180.931 302.315 180.64 302.708 180.233 303.023C179.825 303.337 179.36 303.573 178.778 303.73C178.196 303.887 177.556 303.966 176.858 303.966C176.16 303.966 175.52 303.887 174.938 303.73C174.357 303.573 173.891 303.337 173.484 303.023C173.077 302.708 172.786 302.315 172.553 301.804C172.32 301.293 172.204 300.704 172.204 300.036V299.092C172.204 298.385 172.32 297.795 172.553 297.324C172.786 296.813 173.077 296.42 173.484 296.105C173.891 295.791 174.357 295.555 174.938 295.398C175.52 295.241 176.16 295.162 176.858 295.162C177.556 295.162 178.196 295.241 178.778 295.398C179.36 295.555 179.825 295.791 180.233 296.105C180.64 296.42 180.931 296.813 181.163 297.324C181.396 297.835 181.512 298.424 181.512 299.092V300.036ZM173.891 300.036C173.891 301.097 174.124 301.844 174.648 302.315C175.171 302.787 175.927 302.983 176.916 302.983C177.905 302.983 177.847 302.944 178.196 302.826C178.545 302.708 178.894 302.551 179.127 302.315C179.36 302.079 179.593 301.765 179.709 301.411C179.825 301.057 179.883 300.586 179.883 300.036V299.092C179.883 298.542 179.825 298.11 179.709 297.717C179.593 297.324 179.36 297.049 179.127 296.813C178.894 296.577 178.545 296.42 178.196 296.302C177.847 296.184 177.382 296.145 176.916 296.145C175.927 296.145 175.171 296.38 174.648 296.813C174.124 297.284 173.891 298.031 173.891 299.092V300.036Z" fill="#9EB5C8"/>
<path d="M193.032 295.24V303.848H191.461V296.223H185.992V303.848H184.421V295.24H193.032Z" fill="#9EB5C8"/>
<path d="M205.191 300.036C205.191 300.743 205.074 301.333 204.842 301.804C204.609 302.315 204.318 302.708 203.911 303.023C203.504 303.337 203.038 303.573 202.456 303.73C201.875 303.887 201.235 303.966 200.536 303.966C199.838 303.966 199.198 303.887 198.617 303.73C198.035 303.573 197.569 303.337 197.162 303.023C196.755 302.708 196.464 302.315 196.231 301.804C195.999 301.293 195.882 300.704 195.882 300.036V299.092C195.882 298.385 195.999 297.795 196.231 297.324C196.464 296.813 196.755 296.42 197.162 296.105C197.569 295.791 198.035 295.555 198.617 295.398C199.198 295.241 199.838 295.162 200.536 295.162C201.235 295.162 201.875 295.241 202.456 295.398C203.038 295.555 203.504 295.791 203.911 296.105C204.318 296.42 204.609 296.813 204.842 297.324C205.074 297.835 205.191 298.424 205.191 299.092V300.036ZM197.569 300.036C197.569 301.097 197.802 301.844 198.326 302.315C198.849 302.787 199.606 302.983 200.595 302.983C201.584 302.983 201.525 302.944 201.875 302.826C202.224 302.708 202.573 302.551 202.805 302.315C203.038 302.079 203.271 301.765 203.387 301.411C203.504 301.057 203.562 300.586 203.562 300.036V299.092C203.562 298.542 203.504 298.11 203.387 297.717C203.271 297.324 203.038 297.049 202.805 296.813C202.573 296.577 202.224 296.42 201.875 296.302C201.525 296.184 201.06 296.145 200.595 296.145C199.606 296.145 198.849 296.38 198.326 296.813C197.802 297.284 197.569 298.031 197.569 299.092V300.036Z" fill="#9EB5C8"/>
<path d="M209.729 300.546V303.808H208.158V295.201H212.23C213.685 295.201 214.848 295.437 215.663 295.909C216.477 296.38 216.884 297.048 216.884 297.874C216.884 298.699 216.477 299.367 215.663 299.839C214.848 300.311 213.743 300.546 212.23 300.546H209.787H209.729ZM212.172 299.603C213.277 299.603 214.034 299.446 214.499 299.171C214.964 298.896 215.197 298.463 215.197 297.913C215.197 297.363 214.964 296.97 214.499 296.655C214.034 296.38 213.277 296.223 212.172 296.223H209.729V299.603H212.172Z" fill="#9EB5C8"/>
<path d="M227.24 295.24V296.223H223.342V303.848H221.771V296.223H217.873V295.24H227.181H227.24Z" fill="#9EB5C8"/>
</g>
<path d="M642.449 178.434H838.855C838.855 178.434 835.248 168.019 816.224 165.779C797.142 163.539 792.488 173.05 792.488 173.05C792.488 173.05 794.757 153.477 765.959 150.647C737.161 147.817 713.134 171.674 713.134 171.674C713.134 171.674 711.156 164.246 700.161 163.892C689.107 163.539 662.462 170.22 642.507 178.434H642.449Z" fill="url(#paint17_linear_3053_22)"/>
<path d="M55.5586 192.308H349.178C349.178 192.308 343.826 176.704 315.319 173.364C286.813 170.023 279.831 184.251 279.831 184.251C279.831 184.251 283.264 154.97 240.213 150.765C197.162 146.559 161.208 182.207 161.208 182.207C161.208 182.207 158.299 171.124 141.777 170.573C125.255 170.023 85.4034 180.006 55.5586 192.347V192.308Z" fill="url(#paint18_linear_3053_22)"/>
<path d="M0.291016 401.357H46.8327" stroke="white" stroke-width="5" stroke-miterlimit="10"/>
<path d="M139.858 401.357H1023.63" stroke="white" stroke-width="5" stroke-miterlimit="10" stroke-dasharray="159.9 159.9"/>
<path d="M1070.17 401.357H1116.71" stroke="white" stroke-width="5" stroke-miterlimit="10"/>
<path d="M975.746 243.834H934.382V349.794H975.746V243.834Z" fill="#CBDDE9"/>
<g style="mix-blend-mode:multiply">
<path d="M975.746 243.834H970.917V349.794H975.746V243.834Z" fill="#9EB5C8"/>
</g>
<path d="M987.789 349.793H922.397V307.621C927.052 304.477 929.786 302.748 934.44 299.604H975.804C980.458 302.748 983.193 304.477 987.847 307.621V349.793H987.789Z" fill="#BFD0DC"/>
<g style="mix-blend-mode:multiply">
<path d="M987.789 349.793H922.397V307.621C927.052 304.477 929.786 302.748 934.44 299.604H975.804C980.458 302.748 983.193 304.477 987.847 307.621V349.793H987.789Z" fill="#9EB5C8"/>
</g>
<path d="M982.785 349.793H922.397V307.621C927.052 304.477 929.786 302.748 934.44 299.604H970.975C975.629 302.748 978.189 304.477 982.843 307.621V349.793H982.785Z" fill="#BFD0DC"/>
<path d="M987.847 220.213H922.281V235.58C927.052 238.803 929.612 240.611 934.382 243.834H975.746C980.516 240.611 983.076 238.803 987.847 235.58V220.213Z" fill="#CBDDE9"/>
<path d="M922.281 220.213H987.847V217.305C983.076 216.676 980.516 216.361 975.746 215.732H934.382C929.612 216.361 927.052 216.676 922.281 217.305V220.213Z" fill="#BFD0DC"/>
<g style="mix-blend-mode:multiply">
<path d="M927.052 235.58V220.213H922.281V235.58C927.052 238.803 929.612 240.611 934.382 243.834L927.052 235.58Z" fill="#9EB5C8"/>
<path d="M983.076 220.213V235.58C978.306 238.803 975.629 240.611 970.859 243.834H975.746C980.516 240.611 983.076 238.803 987.847 235.58V220.213H983.076Z" fill="#9EB5C8"/>
</g>
<path d="M987.847 225.164H922.281V232.907H987.847V225.164Z" fill="#213F63"/>
<path d="M927.518 225.164H927.052V232.907H927.518V225.164Z" fill="#BFD0DC"/>
<path d="M938.688 225.164H938.222V232.907H938.688V225.164Z" fill="#BFD0DC"/>
<path d="M949.858 225.164H949.392V232.907H949.858V225.164Z" fill="#BFD0DC"/>
<path d="M961.086 225.164H960.62V232.907H961.086V225.164Z" fill="#BFD0DC"/>
<path d="M972.256 225.164H971.79V232.907H972.256V225.164Z" fill="#BFD0DC"/>
<path d="M983.077 225.164H982.611V232.907H983.077V225.164Z" fill="#BFD0DC"/>
<path d="M961.9 193.094L960.096 188.652V215.732H961.9V193.094Z" fill="#213F63"/>
<path d="M951.312 208.934C949.683 208.934 948.345 211.96 948.345 215.733H954.279C954.279 211.96 952.941 208.934 951.312 208.934Z" fill="#9EB5C8"/>
<path d="M953.597 209.503C956.906 205.63 956.769 201.391 953.291 200.035C949.813 198.678 944.31 200.717 941.001 204.59C937.692 208.462 937.828 212.701 941.307 214.058C944.785 215.415 950.287 213.375 953.597 209.503Z" fill="#BFD0DC"/>
<path d="M952.649 209.118C955.958 205.246 955.822 201.007 952.343 199.65C948.865 198.293 943.363 200.333 940.053 204.205C936.744 208.078 936.881 212.317 940.359 213.673C943.837 215.03 949.34 212.99 952.649 209.118Z" fill="url(#paint19_linear_3053_22)"/>
<path d="M1117 508.969H0V665H1117V508.969Z" fill="#6EA53D"/>
<g style="mix-blend-mode:multiply">
<path d="M1117 508.891H0V512.192H1117V508.891Z" fill="#9EB5C8"/>
</g>
<path d="M0 592.65H816.822L0 650.741V665H1117V512.113L0 579.051V592.65Z" fill="#94BA45"/>
<path d="M22.3984 526.694C22.3984 526.694 11.6938 519.03 18.2096 511.366C24.7254 503.702 39.037 509.244 39.037 509.244C39.037 509.244 37.3499 497.178 51.5451 494.152C65.7403 491.125 71.2089 503.624 71.558 507.239C71.558 507.239 74.0596 502.838 81.2154 502.602C88.3712 502.366 89.7092 506.768 89.5347 510.934C89.5347 510.934 99.0176 506.532 105.359 510.187C111.7 513.842 109.373 523.904 104.37 526.262C99.3666 528.62 22.282 526.694 22.282 526.694H22.3984Z" fill="url(#paint20_linear_3053_22)"/>
<path d="M131.888 545.795C131.888 545.795 118.332 536.048 126.594 526.34C134.855 516.593 153.064 523.628 153.064 523.628C153.064 523.628 150.97 508.3 168.947 504.448C186.981 500.597 193.963 516.475 194.37 521.073C194.37 521.073 197.57 515.492 206.645 515.217C215.779 514.942 217.466 520.523 217.234 525.829C217.234 525.829 229.334 520.209 237.363 524.886C245.391 529.563 242.424 542.297 236.083 545.284C229.742 548.271 131.83 545.873 131.83 545.873L131.888 545.795Z" fill="url(#paint21_linear_3053_22)"/>
<path d="M46.7742 558.019C46.7742 558.019 29.3792 545.56 39.9674 533.062C50.5557 520.563 71.674 527.481 71.674 527.481C71.674 527.481 71.2085 509.952 94.3049 505C117.401 500.047 126.36 520.406 126.884 526.262C126.884 526.262 130.956 519.109 142.65 518.755C154.344 518.402 156.496 525.555 156.205 532.315C156.205 532.315 171.68 525.122 181.978 531.096C192.275 537.07 188.494 553.42 180.349 557.272C172.204 561.124 46.7742 558.019 46.7742 558.019Z" fill="url(#paint22_linear_3053_22)"/>
<path d="M1084.01 517.419C1084.01 517.419 1094.02 510.227 1087.91 503.074C1081.8 495.921 1068.42 501.07 1068.42 501.07C1068.42 501.07 1069.99 489.79 1056.73 486.921C1043.46 484.091 1038.29 495.764 1038 499.144C1038 499.144 1035.67 495.017 1028.92 494.82C1022.23 494.624 1020.95 498.711 1021.12 502.642C1021.12 502.642 1012.22 498.515 1006.29 501.934C1000.36 505.353 1002.57 514.747 1007.22 516.987C1011.93 519.188 1084.01 517.419 1084.01 517.419Z" fill="url(#paint23_linear_3053_22)"/>
<path d="M1036.19 530.428C1036.19 530.428 1050.91 519.855 1041.95 509.283C1032.99 498.71 1013.15 506.335 1013.15 506.335C1013.15 506.335 1015.48 489.671 995.875 485.465C976.27 481.26 968.707 498.553 968.241 503.505C968.241 503.505 964.809 497.453 954.86 497.138C944.97 496.824 943.109 502.877 943.341 508.654C943.341 508.654 930.193 502.562 921.467 507.632C912.74 512.702 915.94 526.537 922.863 529.838C929.786 533.1 1036.19 530.467 1036.19 530.467V530.428Z" fill="url(#paint24_linear_3053_22)"/>
<path d="M946.832 546.542C946.832 546.542 956.781 539.389 950.73 532.236C944.68 525.083 931.241 530.231 931.241 530.231C931.241 530.231 932.812 518.952 919.547 516.122C906.283 513.292 901.163 524.965 900.872 528.345C900.872 528.345 898.545 524.257 891.855 524.022C885.165 523.825 883.885 527.913 884.059 531.803C884.059 531.803 875.158 527.677 869.282 531.096C863.348 534.515 865.559 543.909 870.213 546.11C874.867 548.311 946.89 546.542 946.89 546.542H946.832Z" fill="url(#paint25_linear_3053_22)"/>
<path d="M1048.18 349.989H1043.29L1044.22 345.076H1047.25L1048.18 349.989Z" fill="url(#paint26_linear_3053_22)"/>
<path d="M1058.59 343.505C1059.87 343.505 1066.04 345.195 1064.76 343.151C1063.42 341.029 1045.33 323.5 1045.33 323.5C1045.33 323.5 1027.23 341.029 1025.89 343.151C1024.61 345.195 1027.41 344.999 1032.06 343.505C1032.06 343.505 1030.78 347.042 1037.24 344.959C1042.59 343.23 1041.89 344.291 1043.58 345.745C1045.44 347.396 1046.84 347.514 1049.4 344.881C1051.96 342.287 1052.71 348.143 1055.97 345.902C1057.19 345.077 1057.43 343.466 1058.71 343.466L1058.59 343.505Z" fill="url(#paint27_linear_3053_22)"/>
<path d="M1056.21 337.492C1057.25 337.492 1062.31 338.671 1061.27 337.256C1060.16 335.762 1045.27 323.5 1045.27 323.5C1045.27 323.5 1030.37 335.762 1029.27 337.256C1028.22 338.671 1030.55 338.553 1034.33 337.492C1034.33 337.492 1033.28 339.968 1038.64 338.514C1043.06 337.295 1042.48 338.042 1043.81 339.064C1045.38 340.204 1046.49 340.282 1048.58 338.474C1050.68 336.666 1051.32 340.754 1053.99 339.182C1054.98 338.592 1055.22 337.492 1056.26 337.492H1056.21Z" fill="url(#paint28_linear_3053_22)"/>
<path d="M1054.58 331.675C1055.45 331.675 1059.46 332.657 1058.65 331.478C1057.78 330.221 1045.79 320.002 1045.79 320.002C1045.79 320.002 1033.81 330.221 1032.93 331.478C1032.06 332.657 1033.92 332.579 1037.01 331.675C1037.01 331.675 1036.13 333.758 1040.44 332.539C1043.99 331.518 1043.52 332.146 1044.63 333.011C1045.85 333.954 1046.78 334.033 1048.47 332.5C1050.15 330.967 1050.68 334.426 1052.83 333.09C1053.65 332.618 1053.76 331.675 1054.63 331.675H1054.58Z" fill="url(#paint29_linear_3053_22)"/>
<path d="M1053.35 326.762C1054.11 326.762 1057.6 327.705 1056.85 326.566C1056.09 325.386 1045.73 315.836 1045.73 315.836C1045.73 315.836 1035.38 325.426 1034.62 326.566C1033.87 327.666 1035.49 327.587 1038.11 326.762C1038.11 326.762 1037.36 328.688 1041.08 327.548C1044.16 326.605 1043.76 327.194 1044.69 327.98C1045.73 328.884 1046.55 328.924 1048 327.509C1049.46 326.094 1049.92 329.317 1051.73 328.059C1052.42 327.587 1052.54 326.723 1053.3 326.723L1053.35 326.762Z" fill="url(#paint30_linear_3053_22)"/>
<path d="M147.886 349.99H145.443L145.908 347.553H147.421L147.886 349.99Z" fill="url(#paint31_linear_3053_22)"/>
<path d="M153.064 346.768C153.704 346.768 156.729 347.593 156.089 346.61C155.449 345.549 146.432 336.863 146.432 336.863C146.432 336.863 137.472 345.549 136.774 346.61C136.134 347.632 137.531 347.514 139.8 346.768C139.8 346.768 139.16 348.536 142.359 347.475C145.035 346.61 144.686 347.161 145.501 347.868C146.432 348.693 147.13 348.733 148.352 347.436C149.631 346.139 149.981 349.047 151.61 347.947C152.191 347.514 152.308 346.728 152.948 346.728L153.064 346.768Z" fill="url(#paint32_linear_3053_22)"/>
<path d="M151.842 343.781C152.366 343.781 154.868 344.37 154.344 343.663C153.82 342.916 146.432 336.824 146.432 336.824C146.432 336.824 139.043 342.916 138.52 343.663C137.996 344.37 139.16 344.292 141.021 343.781C141.021 343.781 140.498 344.999 143.116 344.292C145.327 343.702 145.036 344.056 145.676 344.567C146.432 345.117 147.014 345.156 148.061 344.292C149.108 343.388 149.399 345.431 150.737 344.645C151.202 344.37 151.319 343.82 151.842 343.82V343.781Z" fill="url(#paint33_linear_3053_22)"/>
<path d="M151.028 340.91C151.435 340.91 153.471 341.382 153.064 340.832C152.598 340.203 146.664 335.133 146.664 335.133C146.664 335.133 140.73 340.203 140.265 340.832C139.858 341.421 140.788 341.382 142.301 340.91C142.301 340.91 141.894 341.932 143.988 341.343C145.733 340.832 145.501 341.146 146.082 341.578C146.722 342.05 147.13 342.089 148.002 341.343C148.817 340.596 149.108 342.286 150.155 341.618C150.562 341.382 150.62 340.91 151.028 340.91Z" fill="url(#paint34_linear_3053_22)"/>
<path d="M150.446 338.474C150.795 338.474 152.54 338.946 152.191 338.396C151.842 337.806 146.722 333.09 146.722 333.09C146.722 333.09 141.603 337.845 141.254 338.396C140.905 338.946 141.661 338.907 142.999 338.474C142.999 338.474 142.65 339.457 144.454 338.867C145.966 338.396 145.792 338.671 146.257 339.064C146.781 339.496 147.188 339.535 147.886 338.828C148.584 338.121 148.817 339.732 149.748 339.103C150.097 338.867 150.155 338.435 150.504 338.435L150.446 338.474Z" fill="url(#paint35_linear_3053_22)"/>
<path d="M109.024 349.99H106.58L107.045 347.553H108.558L109.024 349.99Z" fill="url(#paint36_linear_3053_22)"/>
<path d="M114.201 346.768C114.841 346.768 117.866 347.593 117.226 346.61C116.586 345.549 107.569 336.863 107.569 336.863C107.569 336.863 98.6097 345.549 97.9116 346.61C97.2716 347.632 98.6679 347.514 100.937 346.768C100.937 346.768 100.297 348.536 103.497 347.475C106.173 346.61 105.824 347.161 106.638 347.868C107.569 348.693 108.267 348.733 109.489 347.436C110.769 346.139 111.118 349.047 112.747 347.947C113.328 347.514 113.445 346.728 114.085 346.728L114.201 346.768Z" fill="url(#paint37_linear_3053_22)"/>
<path d="M112.98 343.781C113.503 343.781 116.005 344.37 115.481 343.663C114.958 342.916 107.569 336.824 107.569 336.824C107.569 336.824 100.181 342.916 99.6571 343.663C99.1335 344.37 100.297 344.292 102.159 343.781C102.159 343.781 101.635 344.999 104.253 344.292C106.464 343.702 106.173 344.056 106.813 344.567C107.569 345.117 108.151 345.156 109.198 344.292C110.245 343.388 110.536 345.431 111.874 344.645C112.34 344.37 112.456 343.82 112.98 343.82V343.781Z" fill="url(#paint38_linear_3053_22)"/>
<path d="M112.165 340.91C112.572 340.91 114.609 341.382 114.201 340.832C113.736 340.203 107.802 335.133 107.802 335.133C107.802 335.133 101.868 340.203 101.402 340.832C100.995 341.421 101.926 341.382 103.439 340.91C103.439 340.91 103.031 341.932 105.126 341.343C106.871 340.832 106.638 341.146 107.22 341.578C107.86 342.05 108.267 342.089 109.14 341.343C109.954 340.596 110.245 342.286 111.293 341.618C111.7 341.382 111.758 340.91 112.165 340.91Z" fill="url(#paint39_linear_3053_22)"/>
<path d="M111.583 338.474C111.933 338.474 113.678 338.946 113.329 338.396C112.98 337.806 107.86 333.09 107.86 333.09C107.86 333.09 102.741 337.845 102.391 338.396C102.042 338.946 102.799 338.907 104.137 338.474C104.137 338.474 103.788 339.457 105.591 338.867C107.104 338.396 106.929 338.671 107.395 339.064C107.918 339.496 108.326 339.535 109.024 338.828C109.722 338.121 109.955 339.732 110.885 339.103C111.234 338.867 111.293 338.435 111.642 338.435L111.583 338.474Z" fill="url(#paint40_linear_3053_22)"/>
<path d="M70.1612 349.99H67.7178L68.1832 347.553H69.6958L70.1612 349.99Z" fill="url(#paint41_linear_3053_22)"/>
<path d="M75.2812 346.768C75.9212 346.768 78.9464 347.593 78.3064 346.61C77.6665 345.549 68.649 336.863 68.649 336.863C68.649 336.863 59.6898 345.549 58.9916 346.61C58.3517 347.632 59.7479 347.514 62.0168 346.768C62.0168 346.768 61.3769 348.536 64.5766 347.475C67.2528 346.61 66.9037 347.161 67.7182 347.868C68.649 348.693 69.3472 348.733 70.5689 347.436C71.8488 346.139 72.1978 349.047 73.8268 347.947C74.4086 347.514 74.5249 346.728 75.1649 346.728L75.2812 346.768Z" fill="url(#paint42_linear_3053_22)"/>
<path d="M74.1173 343.781C74.6409 343.781 77.1425 344.37 76.619 343.663C76.0954 342.916 68.7069 336.824 68.7069 336.824C68.7069 336.824 61.3184 342.916 60.7948 343.663C60.2712 344.37 61.4347 344.292 63.2964 343.781C63.2964 343.781 62.7728 344.999 65.3908 344.292C67.6015 343.702 67.3106 344.056 67.9506 344.567C68.7069 345.117 69.2886 345.156 70.3358 344.292C71.383 343.388 71.6739 345.431 73.012 344.645C73.4774 344.37 73.5938 343.82 74.1173 343.82V343.781Z" fill="url(#paint43_linear_3053_22)"/>
<path d="M73.3029 340.91C73.7101 340.91 75.7463 341.382 75.3391 340.832C74.8737 340.203 68.9396 335.133 68.9396 335.133C68.9396 335.133 63.0056 340.203 62.5401 340.832C62.1329 341.421 63.0637 341.382 64.5763 340.91C64.5763 340.91 64.1691 341.932 66.2635 341.343C68.0088 340.832 67.7761 341.146 68.3579 341.578C68.9978 342.05 69.405 342.089 70.2777 341.343C71.0922 340.596 71.3831 342.286 72.4303 341.618C72.8375 341.382 72.8957 340.91 73.3029 340.91Z" fill="url(#paint44_linear_3053_22)"/>
<path d="M72.7212 338.474C73.0702 338.474 74.8155 338.946 74.4665 338.396C74.1174 337.806 68.9978 333.09 68.9978 333.09C68.9978 333.09 63.8783 337.845 63.5292 338.396C63.1801 338.946 63.9364 338.907 65.2745 338.474C65.2745 338.474 64.9254 339.457 66.7289 338.867C68.2415 338.396 68.067 338.671 68.5324 339.064C69.056 339.496 69.4633 339.535 70.1614 338.828C70.8595 338.121 71.0922 339.732 72.0231 339.103C72.3721 338.867 72.4303 338.435 72.7794 338.435L72.7212 338.474Z" fill="url(#paint45_linear_3053_22)"/>
<path d="M31.0083 349.99H28.623L29.0885 347.553H30.5429L31.0083 349.99Z" fill="url(#paint46_linear_3053_22)"/>
<path d="M36.1865 346.768C36.8264 346.768 39.8516 347.593 39.2117 346.61C38.5717 345.549 29.5543 336.863 29.5543 336.863C29.5543 336.863 20.595 345.549 19.8969 346.61C19.257 347.632 20.6532 347.514 22.9221 346.768C22.9221 346.768 22.2822 348.536 25.4819 347.475C28.1581 346.61 27.809 347.161 28.6235 347.868C29.5543 348.693 30.2524 348.733 31.4741 347.436C32.754 346.139 33.1031 349.047 34.7321 347.947C35.3138 347.514 35.4302 346.728 36.0701 346.728L36.1865 346.768Z" fill="url(#paint47_linear_3053_22)"/>
<path d="M35.0226 343.781C35.5462 343.781 38.0478 344.37 37.5242 343.663C37.0006 342.916 29.6121 336.824 29.6121 336.824C29.6121 336.824 22.2237 342.916 21.7001 343.663C21.1765 344.37 22.34 344.292 24.2017 343.781C24.2017 343.781 23.6781 344.999 26.2961 344.292C28.5068 343.702 28.2159 344.056 28.8558 344.567C29.6121 345.117 30.1939 345.156 31.2411 344.292C32.2883 343.388 32.5792 345.431 33.9172 344.645C34.3827 344.37 34.499 343.82 35.0226 343.82V343.781Z" fill="url(#paint48_linear_3053_22)"/>
<path d="M34.2082 340.91C34.6154 340.91 36.6516 341.382 36.2444 340.832C35.779 340.203 29.8449 335.133 29.8449 335.133C29.8449 335.133 23.9108 340.203 23.4454 340.832C23.0382 341.421 23.969 341.382 25.4816 340.91C25.4816 340.91 25.0744 341.932 27.1688 341.343C28.9141 340.832 28.6814 341.146 29.2631 341.578C29.9031 342.05 30.3103 342.089 31.183 341.343C31.9975 340.596 32.2883 342.286 33.3355 341.618C33.7428 341.382 33.8009 340.91 34.2082 340.91Z" fill="url(#paint49_linear_3053_22)"/>
<path d="M33.5688 338.474C33.9179 338.474 35.6632 338.946 35.3141 338.396C34.9651 337.806 29.8455 333.09 29.8455 333.09C29.8455 333.09 24.7259 337.845 24.3769 338.396C24.0278 338.946 24.7841 338.907 26.1222 338.474C26.1222 338.474 25.7731 339.457 27.5766 338.867C29.0892 338.396 28.9147 338.671 29.3801 339.064C29.9037 339.496 30.3109 339.535 31.009 338.828C31.7072 338.121 31.9399 339.732 32.8707 339.103C33.2198 338.867 33.2779 338.435 33.627 338.435L33.5688 338.474Z" fill="url(#paint50_linear_3053_22)"/>
<path d="M1074.18 349.99H1068.42L1069.53 344.213H1073.08L1074.18 349.99Z" fill="url(#paint51_linear_3053_22)"/>
<path d="M1086.46 342.364C1087.97 342.364 1095.18 344.369 1093.67 341.971C1092.1 339.456 1070.81 318.861 1070.81 318.861C1070.81 318.861 1049.51 339.456 1047.94 341.971C1046.43 344.369 1049.75 344.172 1055.16 342.364C1055.16 342.364 1053.65 346.53 1061.27 344.094C1067.61 342.05 1066.73 343.308 1068.71 345.037C1070.92 346.963 1072.55 347.081 1075.52 344.054C1078.54 340.989 1079.42 347.906 1083.26 345.233C1084.65 344.251 1084.94 342.364 1086.46 342.364Z" fill="url(#paint52_linear_3053_22)"/>
<path d="M1083.66 335.329C1084.89 335.329 1090.82 336.705 1089.6 335.054C1088.32 333.285 1070.81 318.861 1070.81 318.861C1070.81 318.861 1053.3 333.285 1052.02 335.054C1050.79 336.744 1053.53 336.587 1057.95 335.329C1057.95 335.329 1056.73 338.277 1062.95 336.547C1068.13 335.133 1067.43 335.997 1069.06 337.216C1070.87 338.552 1072.2 338.67 1074.65 336.508C1077.15 334.386 1077.85 339.22 1080.99 337.334C1082.15 336.626 1082.38 335.329 1083.61 335.329H1083.66Z" fill="url(#paint53_linear_3053_22)"/>
<path d="M1081.69 328.451C1082.68 328.451 1087.45 329.63 1086.46 328.215C1085.41 326.761 1071.33 314.734 1071.33 314.734C1071.33 314.734 1057.25 326.761 1056.2 328.215C1055.22 329.63 1057.43 329.512 1060.98 328.451C1060.98 328.451 1059.99 330.888 1065.05 329.473C1069.24 328.294 1068.65 329.001 1069.93 330.023C1071.39 331.163 1072.44 331.241 1074.41 329.434C1076.39 327.665 1076.97 331.674 1079.53 330.141C1080.46 329.551 1080.64 328.49 1081.63 328.49L1081.69 328.451Z" fill="url(#paint54_linear_3053_22)"/>
<path d="M1080.29 322.674C1081.16 322.674 1085.29 323.775 1084.42 322.438C1083.55 321.063 1071.39 309.822 1071.39 309.822C1071.39 309.822 1059.23 321.102 1058.36 322.438C1057.49 323.735 1059.4 323.617 1062.49 322.674C1062.49 322.674 1061.62 324.954 1065.98 323.617C1069.59 322.517 1069.12 323.185 1070.23 324.128C1071.51 325.19 1072.38 325.268 1074.12 323.578C1075.81 321.927 1076.33 325.701 1078.55 324.246C1079.36 323.696 1079.53 322.674 1080.35 322.674H1080.29Z" fill="url(#paint55_linear_3053_22)"/>
</g>
<defs>
<linearGradient id="paint0_linear_3053_22" x1="769.974" y1="234.086" x2="769.974" y2="349.792" gradientUnits="userSpaceOnUse">
<stop stop-color="#C6DBFF" stop-opacity="0.5"/>
<stop offset="1" stop-color="#C6DBFF" stop-opacity="0"/>
</linearGradient>
<linearGradient id="paint1_linear_3053_22" x1="702.604" y1="310.766" x2="702.604" y2="350.265" gradientUnits="userSpaceOnUse">
<stop stop-color="#C6DBFF" stop-opacity="0.5"/>
<stop offset="1" stop-color="#C6DBFF" stop-opacity="0"/>
</linearGradient>
<linearGradient id="paint2_linear_3053_22" x1="558.5" y1="0" x2="558.5" y2="248.058" gradientUnits="userSpaceOnUse">
<stop stop-color="#C6DBFF"/>
<stop offset="1" stop-color="#C6DBFF" stop-opacity="0"/>
</linearGradient>
<linearGradient id="paint3_linear_3053_22" x1="-169.353" y1="274.251" x2="706.86" y2="362.47" gradientUnits="userSpaceOnUse">
<stop stop-color="#528FE9"/>
<stop offset="0.2" stop-color="#528FE9" stop-opacity="0.7"/>
<stop offset="0.4" stop-color="#528FE9" stop-opacity="0.5"/>
<stop offset="0.6" stop-color="#528FE9" stop-opacity="0.3"/>
<stop offset="0.8" stop-color="#528FE9" stop-opacity="0.1"/>
<stop offset="0.9" stop-color="#528FE9" stop-opacity="0"/>
<stop offset="1" stop-color="#528FE9" stop-opacity="0"/>
</linearGradient>
<linearGradient id="paint4_linear_3053_22" x1="558.5" y1="349.793" x2="558.5" y2="557.704" gradientUnits="userSpaceOnUse">
<stop stop-color="#8FA7BD"/>
<stop offset="1" stop-color="#C1D8E9"/>
</linearGradient>
<linearGradient id="paint5_linear_3053_22" x1="-21.7587" y1="543.241" x2="82.596" y2="388.772" gradientUnits="userSpaceOnUse">
<stop stop-color="#C6DBFF"/>
<stop offset="1" stop-color="#C6DBFF" stop-opacity="0"/>
</linearGradient>
<linearGradient id="paint6_linear_3053_22" x1="7.21353" y1="437.674" x2="103.861" y2="294.559" gradientUnits="userSpaceOnUse">
<stop stop-color="#C6DBFF"/>
<stop offset="1" stop-color="#C6DBFF" stop-opacity="0"/>
</linearGradient>
<linearGradient id="paint7_linear_3053_22" x1="182.559" y1="454.221" x2="292.419" y2="291.602" gradientUnits="userSpaceOnUse">
<stop stop-color="#C6DBFF"/>
<stop offset="1" stop-color="#C6DBFF" stop-opacity="0"/>
</linearGradient>
<linearGradient id="paint8_linear_3053_22" x1="124.498" y1="577.12" x2="265.475" y2="368.496" gradientUnits="userSpaceOnUse">
<stop stop-color="#C6DBFF"/>
<stop offset="1" stop-color="#C6DBFF" stop-opacity="0"/>
</linearGradient>
<linearGradient id="paint9_linear_3053_22" x1="387.168" y1="448.64" x2="487.694" y2="299.838" gradientUnits="userSpaceOnUse">
<stop stop-color="#C6DBFF"/>
<stop offset="1" stop-color="#C6DBFF" stop-opacity="0"/>
</linearGradient>
<linearGradient id="paint10_linear_3053_22" x1="355.287" y1="569.063" x2="482.781" y2="380.287" gradientUnits="userSpaceOnUse">
<stop stop-color="#C6DBFF"/>
<stop offset="1" stop-color="#C6DBFF" stop-opacity="0"/>
</linearGradient>
<linearGradient id="paint11_linear_3053_22" x1="583.167" y1="446.203" x2="679.076" y2="304.289" gradientUnits="userSpaceOnUse">
<stop stop-color="#C6DBFF"/>
<stop offset="1" stop-color="#C6DBFF" stop-opacity="0"/>
</linearGradient>
<linearGradient id="paint12_linear_3053_22" x1="574.324" y1="565.368" x2="694.758" y2="387.097" gradientUnits="userSpaceOnUse">
<stop stop-color="#C6DBFF"/>
<stop offset="1" stop-color="#C6DBFF" stop-opacity="0"/>
</linearGradient>
<linearGradient id="paint13_linear_3053_22" x1="946.096" y1="201.741" x2="946.327" y2="211.535" gradientUnits="userSpaceOnUse">
<stop offset="0.4" stop-color="#9FBDF5" stop-opacity="0"/>
<stop offset="1" stop-color="white"/>
</linearGradient>
<linearGradient id="paint14_linear_3053_22" x1="802.378" y1="565.604" x2="921.222" y2="389.742" gradientUnits="userSpaceOnUse">
<stop stop-color="#C6DBFF"/>
<stop offset="1" stop-color="#C6DBFF" stop-opacity="0"/>
</linearGradient>
<linearGradient id="paint15_linear_3053_22" x1="979.935" y1="427.534" x2="1058.62" y2="311.062" gradientUnits="userSpaceOnUse">
<stop stop-color="#C6DBFF"/>
<stop offset="1" stop-color="#C6DBFF" stop-opacity="0"/>
</linearGradient>
<linearGradient id="paint16_linear_3053_22" x1="1003.79" y1="529.171" x2="1083.27" y2="411.511" gradientUnits="userSpaceOnUse">
<stop stop-color="#C6DBFF"/>
<stop offset="1" stop-color="#C6DBFF" stop-opacity="0"/>
</linearGradient>
<linearGradient id="paint17_linear_3053_22" x1="740.652" y1="150.411" x2="740.652" y2="178.434" gradientUnits="userSpaceOnUse">
<stop stop-color="white" stop-opacity="0.5"/>
<stop offset="0.1" stop-color="white" stop-opacity="0.5"/>
<stop offset="0.3" stop-color="white" stop-opacity="0.4"/>
<stop offset="0.5" stop-color="white" stop-opacity="0.3"/>
<stop offset="0.8" stop-color="white" stop-opacity="0.2"/>
<stop offset="1" stop-color="white" stop-opacity="0"/>
</linearGradient>
<linearGradient id="paint18_linear_3053_22" x1="202.339" y1="150.411" x2="202.339" y2="192.308" gradientUnits="userSpaceOnUse">
<stop stop-color="#C6DBFF"/>
<stop offset="1" stop-color="#C6DBFF" stop-opacity="0"/>
</linearGradient>
<linearGradient id="paint19_linear_3053_22" x1="939.948" y1="204.329" x2="950.085" y2="212.309" gradientUnits="userSpaceOnUse">
<stop offset="0.4" stop-color="#9FBDF5" stop-opacity="0"/>
<stop offset="1" stop-color="white"/>
</linearGradient>
<linearGradient id="paint20_linear_3053_22" x1="-15.5331" y1="508.536" x2="86.218" y2="515.152" gradientUnits="userSpaceOnUse">
<stop stop-color="#186614"/>
<stop offset="0.4" stop-color="#1A6C18"/>
<stop offset="0.7" stop-color="#217E23"/>
<stop offset="0.8" stop-color="#228125"/>
</linearGradient>
<linearGradient id="paint21_linear_3053_22" x1="83.7171" y1="522.763" x2="212.922" y2="531.183" gradientUnits="userSpaceOnUse">
<stop stop-color="#186614"/>
<stop offset="0.4" stop-color="#1A6C18"/>
<stop offset="0.7" stop-color="#217E23"/>
<stop offset="0.8" stop-color="#228125"/>
</linearGradient>
<linearGradient id="paint22_linear_3053_22" x1="36.5932" y1="531.725" x2="188.261" y2="531.725" gradientUnits="userSpaceOnUse">
<stop stop-color="#186614"/>
<stop offset="0.4" stop-color="#1A6C18"/>
<stop offset="0.7" stop-color="#217E23"/>
<stop offset="0.8" stop-color="#228125"/>
</linearGradient>
<linearGradient id="paint23_linear_3053_22" x1="1119.5" y1="500.441" x2="1024.25" y2="506.627" gradientUnits="userSpaceOnUse">
<stop stop-color="#186614"/>
<stop offset="0.4" stop-color="#1A6C18"/>
<stop offset="0.7" stop-color="#217E23"/>
<stop offset="0.8" stop-color="#228125"/>
</linearGradient>
<linearGradient id="paint24_linear_3053_22" x1="1088.61" y1="505.392" x2="948.083" y2="514.499" gradientUnits="userSpaceOnUse">
<stop stop-color="#186614"/>
<stop offset="0.4" stop-color="#1A6C18"/>
<stop offset="0.7" stop-color="#217E23"/>
<stop offset="0.8" stop-color="#228125"/>
</linearGradient>
<linearGradient id="paint25_linear_3053_22" x1="982.262" y1="529.563" x2="887.245" y2="535.749" gradientUnits="userSpaceOnUse">
<stop stop-color="#186614"/>
<stop offset="0.4" stop-color="#1A6C18"/>
<stop offset="0.7" stop-color="#217E23"/>
<stop offset="0.8" stop-color="#228125"/>
</linearGradient>
<linearGradient id="paint26_linear_3053_22" x1="1045.73" y1="349.989" x2="1045.73" y2="345.076" gradientUnits="userSpaceOnUse">
<stop stop-color="#002F00"/>
<stop offset="0.5" stop-color="#016D00"/>
<stop offset="1" stop-color="#03A600"/>
</linearGradient>
<linearGradient id="paint27_linear_3053_22" x1="1045.21" y1="346.924" x2="1045.21" y2="323.5" gradientUnits="userSpaceOnUse">
<stop stop-color="#0E6B0C"/>
<stop offset="0.6" stop-color="#03A600"/>
</linearGradient>
<linearGradient id="paint28_linear_3053_22" x1="1045.21" y1="339.928" x2="1045.21" y2="323.5" gradientUnits="userSpaceOnUse">
<stop stop-color="#0E6B0C"/>
<stop offset="0.6" stop-color="#03A600"/>
</linearGradient>
<linearGradient id="paint29_linear_3053_22" x1="1045.73" y1="333.679" x2="1045.73" y2="320.002" gradientUnits="userSpaceOnUse">
<stop stop-color="#0E6B0C"/>
<stop offset="0.6" stop-color="#03A600"/>
</linearGradient>
<linearGradient id="paint30_linear_3053_22" x1="1045.73" y1="328.609" x2="1045.73" y2="315.797" gradientUnits="userSpaceOnUse">
<stop stop-color="#0E6B0C"/>
<stop offset="0.6" stop-color="#03A600"/>
</linearGradient>
<linearGradient id="paint31_linear_3053_22" x1="146.665" y1="133.235" x2="146.665" y2="347.553" gradientUnits="userSpaceOnUse">
<stop stop-color="#002F00"/>
<stop offset="0.5" stop-color="#016D00"/>
<stop offset="1" stop-color="#03A600"/>
</linearGradient>
<linearGradient id="paint32_linear_3053_22" x1="146.432" y1="348.458" x2="146.432" y2="336.863" gradientUnits="userSpaceOnUse">
<stop stop-color="#0E6B0C"/>
<stop offset="0.6" stop-color="#03A600"/>
</linearGradient>
<linearGradient id="paint33_linear_3053_22" x1="146.432" y1="344.999" x2="146.432" y2="336.864" gradientUnits="userSpaceOnUse">
<stop stop-color="#0E6B0C"/>
<stop offset="0.6" stop-color="#03A600"/>
</linearGradient>
<linearGradient id="paint34_linear_3053_22" x1="146.664" y1="341.893" x2="146.664" y2="335.133" gradientUnits="userSpaceOnUse">
<stop stop-color="#0E6B0C"/>
<stop offset="0.6" stop-color="#03A600"/>
</linearGradient>
<linearGradient id="paint35_linear_3053_22" x1="146.664" y1="339.378" x2="146.664" y2="333.051" gradientUnits="userSpaceOnUse">
<stop stop-color="#0E6B0C"/>
<stop offset="0.6" stop-color="#03A600"/>
</linearGradient>
<linearGradient id="paint36_linear_3053_22" x1="107.802" y1="133.235" x2="107.802" y2="347.553" gradientUnits="userSpaceOnUse">
<stop stop-color="#002F00"/>
<stop offset="0.5" stop-color="#016D00"/>
<stop offset="1" stop-color="#03A600"/>
</linearGradient>
<linearGradient id="paint37_linear_3053_22" x1="107.569" y1="348.458" x2="107.569" y2="336.863" gradientUnits="userSpaceOnUse">
<stop stop-color="#0E6B0C"/>
<stop offset="0.6" stop-color="#03A600"/>
</linearGradient>
<linearGradient id="paint38_linear_3053_22" x1="107.569" y1="344.999" x2="107.569" y2="336.864" gradientUnits="userSpaceOnUse">
<stop stop-color="#0E6B0C"/>
<stop offset="0.6" stop-color="#03A600"/>
</linearGradient>
<linearGradient id="paint39_linear_3053_22" x1="107.802" y1="341.893" x2="107.802" y2="335.133" gradientUnits="userSpaceOnUse">
<stop stop-color="#0E6B0C"/>
<stop offset="0.6" stop-color="#03A600"/>
</linearGradient>
<linearGradient id="paint40_linear_3053_22" x1="107.802" y1="339.378" x2="107.802" y2="333.051" gradientUnits="userSpaceOnUse">
<stop stop-color="#0E6B0C"/>
<stop offset="0.6" stop-color="#03A600"/>
</linearGradient>
<linearGradient id="paint41_linear_3053_22" x1="68.9395" y1="133.235" x2="68.9395" y2="347.553" gradientUnits="userSpaceOnUse">
<stop stop-color="#002F00"/>
<stop offset="0.5" stop-color="#016D00"/>
<stop offset="1" stop-color="#03A600"/>
</linearGradient>
<linearGradient id="paint42_linear_3053_22" x1="68.7072" y1="348.458" x2="68.7072" y2="336.863" gradientUnits="userSpaceOnUse">
<stop stop-color="#0E6B0C"/>
<stop offset="0.6" stop-color="#03A600"/>
</linearGradient>
<linearGradient id="paint43_linear_3053_22" x1="68.7069" y1="344.999" x2="68.7069" y2="336.864" gradientUnits="userSpaceOnUse">
<stop stop-color="#0E6B0C"/>
<stop offset="0.6" stop-color="#03A600"/>
</linearGradient>
<linearGradient id="paint44_linear_3053_22" x1="68.9396" y1="341.893" x2="68.9396" y2="335.133" gradientUnits="userSpaceOnUse">
<stop stop-color="#0E6B0C"/>
<stop offset="0.6" stop-color="#03A600"/>
</linearGradient>
<linearGradient id="paint45_linear_3053_22" x1="68.9397" y1="339.378" x2="68.9397" y2="333.051" gradientUnits="userSpaceOnUse">
<stop stop-color="#0E6B0C"/>
<stop offset="0.6" stop-color="#03A600"/>
</linearGradient>
<linearGradient id="paint46_linear_3053_22" x1="29.7866" y1="133.235" x2="29.7866" y2="347.553" gradientUnits="userSpaceOnUse">
<stop stop-color="#002F00"/>
<stop offset="0.5" stop-color="#016D00"/>
<stop offset="1" stop-color="#03A600"/>
</linearGradient>
<linearGradient id="paint47_linear_3053_22" x1="29.5543" y1="348.458" x2="29.5543" y2="336.863" gradientUnits="userSpaceOnUse">
<stop stop-color="#0E6B0C"/>
<stop offset="0.6" stop-color="#03A600"/>
</linearGradient>
<linearGradient id="paint48_linear_3053_22" x1="29.554" y1="344.999" x2="29.554" y2="336.864" gradientUnits="userSpaceOnUse">
<stop stop-color="#0E6B0C"/>
<stop offset="0.6" stop-color="#03A600"/>
</linearGradient>
<linearGradient id="paint49_linear_3053_22" x1="29.7867" y1="341.893" x2="29.7867" y2="335.133" gradientUnits="userSpaceOnUse">
<stop stop-color="#0E6B0C"/>
<stop offset="0.6" stop-color="#03A600"/>
</linearGradient>
<linearGradient id="paint50_linear_3053_22" x1="29.7873" y1="339.378" x2="29.7873" y2="333.051" gradientUnits="userSpaceOnUse">
<stop stop-color="#0E6B0C"/>
<stop offset="0.6" stop-color="#03A600"/>
</linearGradient>
<linearGradient id="paint51_linear_3053_22" x1="1071.33" y1="133.236" x2="1071.33" y2="344.213" gradientUnits="userSpaceOnUse">
<stop stop-color="#002F00"/>
<stop offset="0.5" stop-color="#016D00"/>
<stop offset="1" stop-color="#03A600"/>
</linearGradient>
<linearGradient id="paint52_linear_3053_22" x1="1070.69" y1="346.373" x2="1070.69" y2="318.861" gradientUnits="userSpaceOnUse">
<stop stop-color="#0E6B0C"/>
<stop offset="0.6" stop-color="#03A600"/>
</linearGradient>
<linearGradient id="paint53_linear_3053_22" x1="1070.69" y1="338.159" x2="1070.69" y2="318.861" gradientUnits="userSpaceOnUse">
<stop stop-color="#0E6B0C"/>
<stop offset="0.6" stop-color="#03A600"/>
</linearGradient>
<linearGradient id="paint54_linear_3053_22" x1="1071.33" y1="330.809" x2="1071.33" y2="314.734" gradientUnits="userSpaceOnUse">
<stop stop-color="#0E6B0C"/>
<stop offset="0.6" stop-color="#03A600"/>
</linearGradient>
<linearGradient id="paint55_linear_3053_22" x1="1071.33" y1="324.875" x2="1071.33" y2="309.822" gradientUnits="userSpaceOnUse">
<stop stop-color="#0E6B0C"/>
<stop offset="0.6" stop-color="#03A600"/>
</linearGradient>
<clipPath id="clip0_3053_22">
<rect width="1117" height="665" fill="white"/>
</clipPath>
</defs>
</svg>
