<svg width="765" height="203" viewBox="0 0 765 203" fill="none" xmlns="http://www.w3.org/2000/svg">
<path d="M642.161 158.098L631.055 190.352L639.583 193.288L650.689 161.034L642.161 158.098Z" fill="#01225D"/>
<path fill-rule="evenodd" clip-rule="evenodd" d="M290.803 39.1199C289.582 38.7808 288.362 39.3234 287.751 40.4084C286.87 41.8326 287.48 43.6637 289.04 44.3418L320.304 58.1766L348.38 115.076C350.957 120.365 355.908 124.095 361.74 125.113L384.663 129.249C404.397 132.776 414.909 106.802 398.294 95.6119L331.358 50.5811C330.68 49.9707 329.866 49.5638 328.984 49.2925L290.871 39.1877H290.803V39.1199Z" fill="#86ADF2"/>
<path fill-rule="evenodd" clip-rule="evenodd" d="M290.803 39.1199C289.582 38.7808 288.362 39.3234 287.751 40.4084C286.87 41.8326 287.48 43.6637 289.04 44.3418L320.304 58.1766L348.38 115.076C350.957 120.365 355.908 124.095 361.74 125.113L384.663 129.249C404.397 132.776 414.909 106.802 398.294 95.6119L331.358 50.5811C330.68 49.9707 329.866 49.5638 328.984 49.2925L290.871 39.1877H290.803V39.1199Z" fill="url(#paint0_linear_3065_30809)"/>
<path d="M40.6237 6.22922C39.4708 3.31307 41.98 0.261259 45.0318 0.871617L74.6681 6.9074C77.3808 7.44994 79.8901 8.80628 81.8568 10.773L191.247 120.705C195.112 124.571 192.332 131.217 186.838 131.217H100.981C95.2847 131.217 90.1305 127.758 87.9604 122.469L40.5559 6.22922H40.6237Z" fill="#3C74D8"/>
<path d="M40.6237 6.22922C39.4708 3.31307 41.98 0.261259 45.0318 0.871617L74.6681 6.9074C77.3808 7.44994 79.8901 8.80628 81.8568 10.773L191.247 120.705C195.112 124.571 192.332 131.217 186.838 131.217H100.981C95.2847 131.217 90.1305 127.758 87.9604 122.469L40.5559 6.22922H40.6237Z" fill="url(#paint1_linear_3065_30809)"/>
<path fill-rule="evenodd" clip-rule="evenodd" d="M71.2775 110.668C53.984 113.245 45.032 121.18 39.6744 137.253C34.8594 151.63 258.047 173.739 276.426 173.467L646.71 170.823C648.269 170.823 649.829 170.687 651.389 170.484C652.135 170.484 652.881 170.348 653.627 170.28L745.927 158.276C755.489 157.056 762.949 149.392 763.966 139.83C765.051 129.929 759.016 120.705 749.521 117.721L660.748 89.7128C656.679 88.4242 652.542 87.8139 648.473 87.7461C647.184 87.7461 645.828 87.7461 644.472 87.7461L71.3453 110.668H71.2775Z" fill="url(#paint2_linear_3065_30809)"/>
<path fill-rule="evenodd" clip-rule="evenodd" d="M69.921 112.024C52.6275 114.601 43.6756 122.536 38.318 138.608C33.5029 152.986 256.691 175.094 275.069 174.823L645.353 172.178C646.913 172.178 648.473 172.042 650.033 171.839C650.779 171.839 651.525 171.703 652.271 171.636L744.57 159.632C754.133 158.411 761.593 150.748 762.61 141.185C763.695 131.284 757.659 122.061 748.165 119.077L659.391 91.0682C655.322 89.7797 651.186 89.1694 647.117 89.1016C645.828 89.1016 644.472 89.1016 643.115 89.1016L69.9888 112.024H69.921Z" fill="url(#paint3_linear_3065_30809)"/>
<path d="M3.59539 135.15H142.486C144.113 135.15 145.402 136.439 145.402 137.999C145.402 139.559 144.113 140.847 142.486 140.847H3.59539C1.96777 140.847 0.679199 139.559 0.679199 137.999C0.679199 136.439 1.96777 135.15 3.59539 135.15Z" fill="#86ADF2"/>
<path d="M3.59539 135.15H142.486C144.113 135.15 145.402 136.439 145.402 137.999C145.402 139.559 144.113 140.847 142.486 140.847H3.59539C1.96777 140.847 0.679199 139.559 0.679199 137.999C0.679199 136.439 1.96777 135.15 3.59539 135.15Z" fill="url(#paint4_linear_3065_30809)"/>
<path d="M436.814 132.303H475.538C490.661 132.303 502.936 144.578 502.936 159.633C502.936 174.757 490.661 187.032 475.538 187.032H436.814C421.691 187.032 409.416 174.757 409.416 159.701C409.416 144.578 421.691 132.303 436.814 132.303Z" fill="#3C74D8"/>
<mask id="mask0_3065_30809" style="mask-type:alpha" maskUnits="userSpaceOnUse" x="409" y="132" width="94" height="56">
<path d="M436.814 132.303H475.538C490.661 132.303 502.936 144.578 502.936 159.633C502.936 174.757 490.661 187.032 475.538 187.032H436.814C421.691 187.032 409.416 174.757 409.416 159.701C409.416 144.578 421.691 132.303 436.814 132.303Z" fill="#D2E2FF"/>
</mask>
<g mask="url(#mask0_3065_30809)">
<path d="M499.274 132.303H537.998C553.121 132.303 565.396 144.578 565.396 159.633C565.396 174.757 553.121 187.032 537.998 187.032H499.274C484.151 187.032 471.876 174.757 471.876 159.701C471.876 144.578 484.151 132.303 499.274 132.303Z" fill="#003CA6"/>
</g>
<path fill-rule="evenodd" clip-rule="evenodd" d="M197.283 199.035C194.502 199.375 191.586 198.832 190.094 197.747C188.127 196.323 189.484 194.492 193.01 193.813L265.914 179.979L331.29 142.747C337.326 137.457 348.923 133.727 362.351 132.71L415.859 128.573C461.839 125.046 486.389 131.353 447.665 142.543L291.752 187.574C290.193 188.185 288.294 188.592 286.191 188.863L197.283 198.968V199.035Z" fill="#86ADF2"/>
<path fill-rule="evenodd" clip-rule="evenodd" d="M197.283 199.035C194.502 199.375 191.586 198.832 190.094 197.747C188.127 196.323 189.484 194.492 193.01 193.813L265.914 179.979L331.29 142.747C337.326 137.457 348.923 133.727 362.351 132.71L415.859 128.573C461.839 125.046 486.389 131.353 447.665 142.543L291.752 187.574C290.193 188.185 288.294 188.592 286.191 188.863L197.283 198.968V199.035Z" fill="url(#paint5_linear_3065_30809)"/>
<path d="M635.451 202.155C640.845 202.155 645.217 197.782 645.217 192.389C645.217 186.995 640.845 182.623 635.451 182.623C630.058 182.623 625.686 186.995 625.686 192.389C625.686 197.782 630.058 202.155 635.451 202.155Z" fill="url(#paint6_linear_3065_30809)"/>
<path d="M635.451 200.256C639.833 200.256 643.386 196.704 643.386 192.321C643.386 187.939 639.833 184.387 635.451 184.387C631.069 184.387 627.517 187.939 627.517 192.321C627.517 196.704 631.069 200.256 635.451 200.256Z" fill="url(#paint7_linear_3065_30809)"/>
<path d="M662.85 111.008H637.69C636.469 111.008 635.384 110.398 634.706 109.38L628.263 99.6823C627.449 98.4616 628.263 96.834 629.823 96.834H653.491C654.576 96.834 655.593 97.3087 656.272 98.1225L664.342 107.956C665.291 109.177 664.478 110.94 662.918 110.94H662.85V111.008Z" fill="#003CA6"/>
<path d="M713.917 108.567L673.904 110.941C672.751 110.941 671.599 110.534 670.853 109.652L661.561 99.0047C660.815 98.1909 661.426 96.9023 662.511 96.9023H676.82L713.917 108.635V108.567Z" fill="#003CA6"/>
<path d="M661.493 110.33H636.333C635.112 110.33 634.027 109.72 633.349 108.703L626.907 99.0046C626.093 97.7839 626.907 96.1562 628.466 96.1562H652.135C653.22 96.1562 654.237 96.631 654.915 97.4448L662.985 107.278C663.935 108.499 663.121 110.262 661.561 110.262H661.493V110.33Z" fill="url(#paint8_linear_3065_30809)"/>
<path d="M712.56 107.889L672.548 110.263C671.395 110.263 670.242 109.856 669.496 108.974L660.205 98.3269C659.459 97.5131 660.069 96.2246 661.155 96.2246H675.464L712.56 107.957V107.889Z" fill="url(#paint9_linear_3065_30809)"/>
<path d="M582.758 99.5469C585.606 99.4112 587.98 101.649 588.048 104.498L588.251 109.584C588.387 112.432 586.149 114.806 583.368 114.941C580.52 115.077 578.146 112.839 578.078 109.991L577.875 104.904C577.739 102.056 579.977 99.6825 582.758 99.5469Z" fill="#003CA6"/>
<path d="M582.012 98.8008C584.86 98.6651 587.234 100.903 587.302 103.751L587.505 108.838C587.641 111.686 585.403 114.06 582.622 114.195C579.774 114.331 577.4 112.093 577.332 109.245L577.129 104.158C576.993 101.31 579.231 98.9364 582.012 98.8008Z" fill="url(#paint10_linear_3065_30809)"/>
<path d="M560.513 100.428C563.362 100.292 565.735 102.53 565.803 105.378L566.006 110.465C566.142 113.313 563.904 115.687 561.124 115.822C558.275 115.958 555.902 113.72 555.834 110.872L555.63 105.785C555.495 102.937 557.733 100.563 560.513 100.428Z" fill="#003CA6"/>
<path d="M559.835 99.75C562.683 99.6144 565.057 101.852 565.125 104.701L565.328 109.787C565.464 112.635 563.226 115.009 560.445 115.145C557.597 115.28 555.223 113.042 555.156 110.194L554.952 105.108C554.817 102.259 557.054 99.8856 559.835 99.75Z" fill="url(#paint11_linear_3065_30809)"/>
<path d="M538.269 101.377C541.117 101.241 543.491 103.479 543.559 106.328L543.762 111.414C543.898 114.262 541.66 116.636 538.879 116.772C536.031 116.907 533.658 114.669 533.59 111.821L533.386 106.735C533.251 103.886 535.489 101.513 538.269 101.377Z" fill="#003CA6"/>
<path d="M537.591 100.699C540.439 100.564 542.813 102.802 542.881 105.65L543.084 110.736C543.22 113.585 540.982 115.958 538.201 116.094C535.353 116.229 532.979 113.991 532.911 111.143L532.708 106.057C532.572 103.208 534.81 100.835 537.591 100.699Z" fill="url(#paint12_linear_3065_30809)"/>
<path d="M516.093 102.326C518.941 102.191 521.315 104.429 521.383 107.277L521.586 112.363C521.722 115.212 519.484 117.585 516.703 117.721C513.855 117.856 511.481 115.618 511.413 112.77L511.21 107.684C511.074 104.835 513.312 102.462 516.093 102.326Z" fill="#003CA6"/>
<path d="M515.415 101.648C518.263 101.513 520.637 103.751 520.704 106.599L520.908 111.685C521.043 114.534 518.805 116.907 516.025 117.043C513.177 117.179 510.803 114.941 510.735 112.092L510.532 107.006C510.396 104.158 512.634 101.784 515.415 101.648Z" fill="url(#paint13_linear_3065_30809)"/>
<path d="M493.849 103.275C496.697 103.14 499.071 105.378 499.138 108.226L499.342 113.312C499.478 116.161 497.24 118.534 494.459 118.67C491.611 118.806 489.237 116.568 489.169 113.719L488.966 108.633C488.83 105.785 491.068 103.411 493.849 103.275Z" fill="#003CA6"/>
<path d="M493.103 102.666C495.951 102.53 498.325 104.768 498.392 107.617L498.596 112.703C498.731 115.551 496.493 117.925 493.713 118.061C490.865 118.196 488.491 115.958 488.423 113.11L488.22 108.024C488.084 105.175 490.322 102.802 493.103 102.666Z" fill="url(#paint14_linear_3065_30809)"/>
<path d="M471.672 104.295C474.521 104.159 476.894 106.397 476.962 109.246L477.166 114.332C477.301 117.18 475.063 119.554 472.283 119.69C469.434 119.825 467.061 117.587 466.993 114.739L466.79 109.653C466.654 106.804 468.892 104.431 471.672 104.295Z" fill="#003CA6"/>
<path d="M470.994 103.549C473.842 103.413 476.216 105.651 476.284 108.499L476.487 113.586C476.623 116.434 474.385 118.808 471.605 118.943C468.756 119.079 466.383 116.841 466.315 113.993L466.111 108.906C465.976 106.058 468.214 103.684 470.994 103.549Z" fill="url(#paint15_linear_3065_30809)"/>
<path d="M449.428 105.176C452.277 105.04 454.65 107.278 454.718 110.126L454.922 115.213C455.057 118.061 452.819 120.435 450.039 120.57C447.19 120.706 444.817 118.468 444.749 115.62L444.545 110.533C444.41 107.685 446.648 105.311 449.428 105.176Z" fill="#003CA6"/>
<path d="M448.75 104.498C451.598 104.362 453.972 106.6 454.04 109.449L454.243 114.535C454.379 117.383 452.141 119.757 449.36 119.893C446.512 120.028 444.138 117.79 444.071 114.942L443.867 109.856C443.732 107.007 445.97 104.634 448.75 104.498Z" fill="url(#paint16_linear_3065_30809)"/>
<path d="M427.184 106.125C430.032 105.989 432.406 108.227 432.474 111.076L432.677 116.162C432.813 119.01 430.575 121.384 427.794 121.52C424.946 121.655 422.572 119.417 422.505 116.569L422.301 111.483C422.166 108.634 424.404 106.261 427.184 106.125Z" fill="#003CA6"/>
<path d="M426.506 105.447C429.354 105.312 431.728 107.55 431.796 110.398L431.999 115.484C432.135 118.333 429.897 120.706 427.116 120.842C424.268 120.977 421.894 118.74 421.826 115.891L421.623 110.805C421.487 107.957 423.725 105.583 426.506 105.447Z" fill="url(#paint17_linear_3065_30809)"/>
<path d="M405.008 107.074C407.856 106.939 410.23 109.177 410.298 112.025L410.501 117.111C410.637 119.96 408.399 122.333 405.618 122.469C402.77 122.604 400.396 120.366 400.328 117.518L400.125 112.432C399.989 109.583 402.227 107.21 405.008 107.074Z" fill="#003CA6"/>
<path d="M404.33 106.328C407.178 106.192 409.552 108.43 409.619 111.279L409.823 116.365C409.959 119.213 407.721 121.587 404.94 121.723C402.092 121.858 399.718 119.62 399.65 116.772L399.447 111.686C399.311 108.837 401.549 106.464 404.33 106.328Z" fill="url(#paint18_linear_3065_30809)"/>
<path d="M382.764 108.023C385.612 107.888 387.986 110.126 388.053 112.974L388.257 118.06C388.393 120.909 386.155 123.282 383.374 123.418C380.526 123.554 378.152 121.316 378.084 118.467L377.881 113.381C377.745 110.533 379.983 108.159 382.764 108.023Z" fill="#003CA6"/>
<path d="M382.085 107.414C384.934 107.278 387.307 109.516 387.375 112.365L387.579 117.451C387.714 120.299 385.476 122.673 382.696 122.809C379.848 122.944 377.474 120.706 377.406 117.858L377.203 112.772C377.067 109.923 379.305 107.55 382.085 107.414Z" fill="url(#paint19_linear_3065_30809)"/>
<path d="M360.588 108.973C363.436 108.837 365.809 111.075 365.877 113.923L366.081 119.01C366.216 121.858 363.978 124.232 361.198 124.367C358.349 124.503 355.976 122.265 355.908 119.417L355.705 114.33C355.569 111.482 357.807 109.108 360.588 108.973Z" fill="#003CA6"/>
<path d="M359.841 108.295C362.69 108.159 365.063 110.397 365.131 113.246L365.335 118.332C365.47 121.18 363.232 123.554 360.452 123.69C357.603 123.825 355.23 121.587 355.162 118.739L354.958 113.652C354.823 110.804 357.061 108.431 359.841 108.295Z" fill="url(#paint20_linear_3065_30809)"/>
<path d="M338.343 109.855C341.192 109.72 343.565 111.958 343.633 114.806L343.836 119.892C343.972 122.741 341.734 125.114 338.954 125.25C336.105 125.386 333.732 123.148 333.664 120.299L333.46 115.213C333.325 112.365 335.563 109.991 338.343 109.855Z" fill="#003CA6"/>
<path d="M337.665 109.244C340.513 109.109 342.887 111.347 342.955 114.195L343.158 119.281C343.294 122.13 341.056 124.503 338.275 124.639C335.427 124.774 333.053 122.536 332.986 119.688L332.782 114.602C332.647 111.753 334.885 109.38 337.665 109.244Z" fill="url(#paint21_linear_3065_30809)"/>
<path d="M316.167 110.805C319.015 110.669 321.389 112.907 321.456 115.755L321.66 120.842C321.795 123.69 319.557 126.064 316.777 126.199C313.929 126.335 311.555 124.097 311.487 121.249L311.284 116.162C311.148 113.314 313.386 110.94 316.167 110.805Z" fill="#003CA6"/>
<path d="M315.488 110.193C318.337 110.058 320.71 112.296 320.778 115.144L320.982 120.23C321.117 123.079 318.879 125.452 316.099 125.588C313.25 125.724 310.877 123.486 310.809 120.637L310.605 115.551C310.47 112.703 312.708 110.329 315.488 110.193Z" fill="url(#paint22_linear_3065_30809)"/>
<path d="M293.855 111.822C296.703 111.687 299.076 113.925 299.144 116.773L299.348 121.859C299.483 124.708 297.245 127.081 294.465 127.217C291.617 127.352 289.243 125.114 289.175 122.266L288.972 117.18C288.836 114.331 291.074 111.958 293.855 111.822Z" fill="#003CA6"/>
<path d="M293.244 111.076C296.093 110.941 298.466 113.179 298.534 116.027L298.737 121.113C298.873 123.962 296.635 126.335 293.855 126.471C291.006 126.606 288.633 124.368 288.565 121.52L288.361 116.434C288.226 113.585 290.464 111.212 293.244 111.076Z" fill="url(#paint23_linear_3065_30809)"/>
<path d="M271.746 112.703C274.594 112.567 276.968 114.805 277.036 117.654L277.239 122.74C277.375 125.588 275.137 127.962 272.357 128.098C269.508 128.233 267.135 125.995 267.067 123.147L266.863 118.061C266.728 115.212 268.966 112.839 271.746 112.703Z" fill="#003CA6"/>
<path d="M271.068 112.025C273.916 111.89 276.29 114.128 276.358 116.976L276.561 122.062C276.697 124.911 274.459 127.284 271.678 127.42C268.83 127.556 266.456 125.318 266.389 122.469L266.185 117.383C266.049 114.535 268.287 112.161 271.068 112.025Z" fill="url(#paint24_linear_3065_30809)"/>
<path d="M249.502 113.721C252.35 113.585 254.724 115.823 254.792 118.671L254.995 123.758C255.131 126.606 252.893 128.98 250.112 129.115C247.264 129.251 244.89 127.013 244.823 124.165L244.619 119.078C244.484 116.23 246.721 113.856 249.502 113.721Z" fill="#003CA6"/>
<path d="M248.824 112.975C251.672 112.839 254.046 115.077 254.114 117.925L254.317 123.012C254.453 125.86 252.215 128.234 249.434 128.369C246.586 128.505 244.212 126.267 244.144 123.419L243.941 118.332C243.805 115.484 246.043 113.11 248.824 112.975Z" fill="url(#paint25_linear_3065_30809)"/>
<path d="M227.326 114.602C230.174 114.466 232.548 116.704 232.616 119.552L232.819 124.639C232.955 127.487 230.717 129.861 227.936 129.996C225.088 130.132 222.714 127.894 222.646 125.045L222.443 119.959C222.307 117.111 224.545 114.737 227.326 114.602Z" fill="#003CA6"/>
<path d="M226.58 113.924C229.428 113.788 231.802 116.026 231.869 118.874L232.073 123.961C232.208 126.809 229.971 129.183 227.19 129.318C224.342 129.454 221.968 127.216 221.9 124.368L221.697 119.281C221.561 116.433 223.799 114.059 226.58 113.924Z" fill="url(#paint26_linear_3065_30809)"/>
<defs>
<linearGradient id="paint0_linear_3065_30809" x1="300.976" y1="-80.239" x2="388.596" y2="215.92" gradientUnits="userSpaceOnUse">
<stop offset="0.4" stop-color="#3C74D8"/>
<stop offset="0.6" stop-color="#3C74D8" stop-opacity="0"/>
</linearGradient>
<linearGradient id="paint1_linear_3065_30809" x1="42.0479" y1="-82.2049" x2="202.843" y2="253.017" gradientUnits="userSpaceOnUse">
<stop stop-color="#003CA6"/>
<stop offset="0.6" stop-color="#003CA6" stop-opacity="0"/>
</linearGradient>
<linearGradient id="paint2_linear_3065_30809" x1="401.82" y1="173.467" x2="401.82" y2="87.6783" gradientUnits="userSpaceOnUse">
<stop stop-color="#CBDDFD"/>
<stop offset="0.3" stop-color="#BAD1F9"/>
<stop offset="0.5" stop-color="#9EBCF1"/>
<stop offset="0.7" stop-color="#779FE7"/>
<stop offset="1" stop-color="#3C74D8"/>
</linearGradient>
<linearGradient id="paint3_linear_3065_30809" x1="400.464" y1="174.823" x2="400.464" y2="89.0337" gradientUnits="userSpaceOnUse">
<stop offset="0.5" stop-color="#D8E6FF"/>
<stop offset="0.6" stop-color="#EDF4FF"/>
<stop offset="0.7" stop-color="#FAFCFF"/>
<stop offset="0.8" stop-color="white"/>
</linearGradient>
<linearGradient id="paint4_linear_3065_30809" x1="172.665" y1="137.999" x2="-44.2839" y2="137.999" gradientUnits="userSpaceOnUse">
<stop stop-color="#003CA6"/>
<stop offset="0.6" stop-color="#003CA6" stop-opacity="0"/>
</linearGradient>
<linearGradient id="paint5_linear_3065_30809" x1="328.035" y1="199.103" x2="328.035" y2="127.623" gradientUnits="userSpaceOnUse">
<stop offset="0.2" stop-color="#3C74D8"/>
<stop offset="1" stop-color="#3C74D8" stop-opacity="0"/>
</linearGradient>
<linearGradient id="paint6_linear_3065_30809" x1="646.234" y1="201.68" x2="624.872" y2="183.233" gradientUnits="userSpaceOnUse">
<stop stop-color="#5889E0"/>
<stop offset="1" stop-color="#01225D"/>
</linearGradient>
<linearGradient id="paint7_linear_3065_30809" x1="631.368" y1="181.137" x2="639.227" y2="202.63" gradientUnits="userSpaceOnUse">
<stop stop-color="#5889E0"/>
<stop offset="1" stop-color="#01225D"/>
</linearGradient>
<linearGradient id="paint8_linear_3065_30809" x1="645.014" y1="110.33" x2="645.014" y2="96.1562" gradientUnits="userSpaceOnUse">
<stop stop-color="#CBDDFD"/>
<stop offset="0.3" stop-color="#BAD1F9"/>
<stop offset="0.5" stop-color="#9EBCF1"/>
<stop offset="0.7" stop-color="#779FE7"/>
<stop offset="1" stop-color="#3C74D8"/>
</linearGradient>
<linearGradient id="paint9_linear_3065_30809" x1="686.247" y1="110.263" x2="686.247" y2="96.1568" gradientUnits="userSpaceOnUse">
<stop stop-color="#CBDDFD"/>
<stop offset="0.3" stop-color="#BAD1F9"/>
<stop offset="0.5" stop-color="#9EBCF1"/>
<stop offset="0.7" stop-color="#779FE7"/>
<stop offset="1" stop-color="#3C74D8"/>
</linearGradient>
<linearGradient id="paint10_linear_3065_30809" x1="582.247" y1="113.892" x2="582.462" y2="98.4994" gradientUnits="userSpaceOnUse">
<stop stop-color="#CBDDFD"/>
<stop offset="0.3" stop-color="#BAD1F9"/>
<stop offset="0.5" stop-color="#9EBCF1"/>
<stop offset="0.7" stop-color="#779FE7"/>
<stop offset="1" stop-color="#3C74D8"/>
</linearGradient>
<linearGradient id="paint11_linear_3065_30809" x1="560.054" y1="114.87" x2="560.269" y2="99.477" gradientUnits="userSpaceOnUse">
<stop stop-color="#CBDDFD"/>
<stop offset="0.3" stop-color="#BAD1F9"/>
<stop offset="0.5" stop-color="#9EBCF1"/>
<stop offset="0.7" stop-color="#779FE7"/>
<stop offset="1" stop-color="#3C74D8"/>
</linearGradient>
<linearGradient id="paint12_linear_3065_30809" x1="537.795" y1="115.849" x2="538.009" y2="100.456" gradientUnits="userSpaceOnUse">
<stop stop-color="#CBDDFD"/>
<stop offset="0.3" stop-color="#BAD1F9"/>
<stop offset="0.5" stop-color="#9EBCF1"/>
<stop offset="0.7" stop-color="#779FE7"/>
<stop offset="1" stop-color="#3C74D8"/>
</linearGradient>
<linearGradient id="paint13_linear_3065_30809" x1="515.603" y1="116.759" x2="515.818" y2="101.366" gradientUnits="userSpaceOnUse">
<stop stop-color="#CBDDFD"/>
<stop offset="0.3" stop-color="#BAD1F9"/>
<stop offset="0.5" stop-color="#9EBCF1"/>
<stop offset="0.7" stop-color="#779FE7"/>
<stop offset="1" stop-color="#3C74D8"/>
</linearGradient>
<linearGradient id="paint14_linear_3065_30809" x1="493.343" y1="117.806" x2="493.558" y2="102.413" gradientUnits="userSpaceOnUse">
<stop stop-color="#CBDDFD"/>
<stop offset="0.3" stop-color="#BAD1F9"/>
<stop offset="0.5" stop-color="#9EBCF1"/>
<stop offset="0.7" stop-color="#779FE7"/>
<stop offset="1" stop-color="#3C74D8"/>
</linearGradient>
<linearGradient id="paint15_linear_3065_30809" x1="471.219" y1="118.717" x2="471.434" y2="103.324" gradientUnits="userSpaceOnUse">
<stop stop-color="#CBDDFD"/>
<stop offset="0.3" stop-color="#BAD1F9"/>
<stop offset="0.5" stop-color="#9EBCF1"/>
<stop offset="0.7" stop-color="#779FE7"/>
<stop offset="1" stop-color="#3C74D8"/>
</linearGradient>
<linearGradient id="paint16_linear_3065_30809" x1="448.959" y1="119.696" x2="449.174" y2="104.303" gradientUnits="userSpaceOnUse">
<stop stop-color="#CBDDFD"/>
<stop offset="0.3" stop-color="#BAD1F9"/>
<stop offset="0.5" stop-color="#9EBCF1"/>
<stop offset="0.7" stop-color="#779FE7"/>
<stop offset="1" stop-color="#3C74D8"/>
</linearGradient>
<linearGradient id="paint17_linear_3065_30809" x1="426.699" y1="120.741" x2="426.915" y2="105.281" gradientUnits="userSpaceOnUse">
<stop stop-color="#CBDDFD"/>
<stop offset="0.3" stop-color="#BAD1F9"/>
<stop offset="0.5" stop-color="#9EBCF1"/>
<stop offset="0.7" stop-color="#779FE7"/>
<stop offset="1" stop-color="#3C74D8"/>
</linearGradient>
<linearGradient id="paint18_linear_3065_30809" x1="404.508" y1="121.584" x2="404.723" y2="106.191" gradientUnits="userSpaceOnUse">
<stop stop-color="#CBDDFD"/>
<stop offset="0.3" stop-color="#BAD1F9"/>
<stop offset="0.5" stop-color="#9EBCF1"/>
<stop offset="0.7" stop-color="#779FE7"/>
<stop offset="1" stop-color="#3C74D8"/>
</linearGradient>
<linearGradient id="paint19_linear_3065_30809" x1="382.248" y1="122.63" x2="382.463" y2="107.237" gradientUnits="userSpaceOnUse">
<stop stop-color="#CBDDFD"/>
<stop offset="0.3" stop-color="#BAD1F9"/>
<stop offset="0.5" stop-color="#9EBCF1"/>
<stop offset="0.7" stop-color="#779FE7"/>
<stop offset="1" stop-color="#3C74D8"/>
</linearGradient>
<linearGradient id="paint20_linear_3065_30809" x1="360.124" y1="123.541" x2="360.339" y2="108.148" gradientUnits="userSpaceOnUse">
<stop stop-color="#CBDDFD"/>
<stop offset="0.3" stop-color="#BAD1F9"/>
<stop offset="0.5" stop-color="#9EBCF1"/>
<stop offset="0.7" stop-color="#779FE7"/>
<stop offset="1" stop-color="#3C74D8"/>
</linearGradient>
<linearGradient id="paint21_linear_3065_30809" x1="337.864" y1="124.586" x2="338.079" y2="109.193" gradientUnits="userSpaceOnUse">
<stop stop-color="#CBDDFD"/>
<stop offset="0.3" stop-color="#BAD1F9"/>
<stop offset="0.5" stop-color="#9EBCF1"/>
<stop offset="0.7" stop-color="#779FE7"/>
<stop offset="1" stop-color="#3C74D8"/>
</linearGradient>
<linearGradient id="paint22_linear_3065_30809" x1="315.74" y1="125.498" x2="315.955" y2="110.105" gradientUnits="userSpaceOnUse">
<stop stop-color="#CBDDFD"/>
<stop offset="0.3" stop-color="#BAD1F9"/>
<stop offset="0.5" stop-color="#9EBCF1"/>
<stop offset="0.7" stop-color="#779FE7"/>
<stop offset="1" stop-color="#3C74D8"/>
</linearGradient>
<linearGradient id="paint23_linear_3065_30809" x1="293.412" y1="126.409" x2="293.627" y2="111.016" gradientUnits="userSpaceOnUse">
<stop stop-color="#CBDDFD"/>
<stop offset="0.3" stop-color="#BAD1F9"/>
<stop offset="0.5" stop-color="#9EBCF1"/>
<stop offset="0.7" stop-color="#779FE7"/>
<stop offset="1" stop-color="#3C74D8"/>
</linearGradient>
<linearGradient id="paint24_linear_3065_30809" x1="271.288" y1="127.455" x2="271.503" y2="112.062" gradientUnits="userSpaceOnUse">
<stop stop-color="#CBDDFD"/>
<stop offset="0.3" stop-color="#BAD1F9"/>
<stop offset="0.5" stop-color="#9EBCF1"/>
<stop offset="0.7" stop-color="#779FE7"/>
<stop offset="1" stop-color="#3C74D8"/>
</linearGradient>
<linearGradient id="paint25_linear_3065_30809" x1="248.96" y1="128.365" x2="249.175" y2="112.972" gradientUnits="userSpaceOnUse">
<stop stop-color="#CBDDFD"/>
<stop offset="0.3" stop-color="#BAD1F9"/>
<stop offset="0.5" stop-color="#9EBCF1"/>
<stop offset="0.7" stop-color="#779FE7"/>
<stop offset="1" stop-color="#3C74D8"/>
</linearGradient>
<linearGradient id="paint26_linear_3065_30809" x1="226.836" y1="129.412" x2="227.052" y2="113.951" gradientUnits="userSpaceOnUse">
<stop stop-color="#CBDDFD"/>
<stop offset="0.3" stop-color="#BAD1F9"/>
<stop offset="0.5" stop-color="#9EBCF1"/>
<stop offset="0.7" stop-color="#779FE7"/>
<stop offset="1" stop-color="#3C74D8"/>
</linearGradient>
</defs>
</svg>
