<svg width="78" height="78" viewBox="0 0 78 78" fill="none" xmlns="http://www.w3.org/2000/svg">
<g clip-path="url(#clip0_3000_31)">
<path fill-rule="evenodd" clip-rule="evenodd" d="M34 2C34 0.89543 34.8954 0 36 0H42C43.1046 0 44 0.895431 44 2V2.33497C45.448 2.53057 46.8693 2.80993 48.2591 3.16801L48.3842 2.86227C48.8025 1.83997 49.9703 1.35033 50.9926 1.76863L56.5458 4.04082C57.5681 4.45912 58.0577 5.62696 57.6394 6.64926L57.5132 6.9576C58.8613 7.73813 60.1555 8.60129 61.3889 9.54014L61.6275 9.30154C62.4086 8.52049 63.6749 8.52049 64.456 9.30154L68.6986 13.5442C69.4797 14.3252 69.4797 15.5916 68.6986 16.3726L68.46 16.6112C69.3347 17.7605 70.1437 18.9624 70.8814 20.2115L71.189 20.0825C72.2077 19.6554 73.3797 20.135 73.8068 21.1536L76.1267 26.687C76.5538 27.7056 76.0743 28.8777 75.0556 29.3047L74.7511 29.4324C75.1482 30.9201 75.4549 32.4447 75.665 34H76C77.1046 34 78 34.8954 78 36V42C78 43.1046 77.1046 44 76 44H75.665C75.4694 45.448 75.1901 46.8693 74.832 48.2591L75.1377 48.3842C76.16 48.8025 76.6497 49.9703 76.2314 50.9926L73.9592 56.5458C73.5409 57.5681 72.373 58.0577 71.3507 57.6394L71.0424 57.5132C70.2619 58.8612 69.3988 60.1554 68.46 61.3888L68.6986 61.6274C69.4796 62.4085 69.4796 63.6748 68.6986 64.4558L64.4559 68.6985C63.6749 69.4795 62.4086 69.4795 61.6275 68.6985L61.3889 68.4599C60.2397 69.3346 59.0377 70.1436 57.7886 70.8814L57.9176 71.189C58.3447 72.2077 57.8651 73.3797 56.8465 73.8068L51.3131 76.1267C50.2945 76.5538 49.1225 76.0743 48.6954 75.0556L48.5677 74.7511C47.08 75.1482 45.5553 75.4549 44 75.665V76C44 77.1046 43.1046 78 42 78H36C34.8954 78 34 77.1046 34 76V75.665C32.5521 75.4694 31.1307 75.1901 29.7409 74.832L29.6159 75.1377C29.1976 76.16 28.0297 76.6497 27.0074 76.2314L21.4543 73.9592C20.432 73.5409 19.9424 72.373 20.3607 71.3507L20.4868 71.0424C19.1388 70.2619 17.8447 69.3988 16.6112 68.46L16.3727 68.6985C15.5916 69.4796 14.3253 69.4796 13.5443 68.6985L9.30162 64.4559C8.52058 63.6748 8.52058 62.4085 9.30162 61.6275L9.54015 61.3889C8.66541 60.2397 7.85639 59.0378 7.11868 57.7887L6.81116 57.9176C5.7925 58.3447 4.62049 57.8651 4.1934 56.8465L1.87343 51.3132C1.44634 50.2945 1.9259 49.1225 2.94455 48.6954L3.24896 48.5678C2.85182 47.08 2.54507 45.5553 2.33497 44H2C0.89543 44 0 43.1046 0 42V36C0 34.8954 0.895431 34 2 34H2.33497C2.53057 32.552 2.80993 31.1306 3.16802 29.7408L2.86227 29.6157C1.83996 29.1974 1.35032 28.0296 1.76862 27.0073L4.04082 21.4542C4.45912 20.4319 5.62696 19.9422 6.64926 20.3605L6.95763 20.4867C7.73815 19.1387 8.60129 17.8445 9.54013 16.6111L9.3016 16.3726C8.52055 15.5915 8.52055 14.3252 9.3016 13.5441L13.5442 9.3015C14.3253 8.52045 15.5916 8.52045 16.3727 9.3015L16.6112 9.54004C17.7604 8.66532 18.9624 7.85632 20.2114 7.11862L20.0825 6.81116C19.6554 5.7925 20.135 4.62049 21.1536 4.1934L26.687 1.87343C27.7056 1.44634 28.8776 1.9259 29.3047 2.94455L29.4324 3.24893C30.9201 2.8518 32.4447 2.54507 34 2.33497V2Z" fill="url(#paint0_linear_3000_31)"/>
<circle cx="39" cy="39" r="19" fill="url(#paint1_linear_3000_31)"/>
<circle cx="39" cy="39" r="15" fill="url(#paint2_linear_3000_31)"/>
</g>
<defs>
<linearGradient id="paint0_linear_3000_31" x1="5.81667" y1="19.43" x2="77.7784" y2="61.5666" gradientUnits="userSpaceOnUse">
<stop stop-color="#061833"/>
<stop offset="1" stop-color="#003387"/>
</linearGradient>
<linearGradient id="paint1_linear_3000_31" x1="59.9727" y1="57.0656" x2="18.4426" y2="21.2459" gradientUnits="userSpaceOnUse">
<stop stop-color="#5889E0"/>
<stop offset="1" stop-color="#ABCAFF"/>
</linearGradient>
<linearGradient id="paint2_linear_3000_31" x1="31.7187" y1="17.9701" x2="46.7304" y2="58.6219" gradientUnits="userSpaceOnUse">
<stop stop-color="#5889E0"/>
<stop offset="1" stop-color="#ABCAFF"/>
</linearGradient>
<clipPath id="clip0_3000_31">
<rect width="78" height="78" fill="white"/>
</clipPath>
</defs>
</svg>
